<svg width="236" height="76" viewBox="0 0 236 76" fill="none" xmlns="http://www.w3.org/2000/svg">
<g filter="url(#filter0_d_72_4322)">
<rect x="10" y="10" width="216" height="56" rx="28" fill="white"/>
<path d="M41.0494 24.9271C41.3488 24.0058 42.6522 24.0058 42.9516 24.9271L45.3682 32.3647C45.5021 32.7768 45.886 33.0557 46.3193 33.0557H54.1397C55.1084 33.0557 55.5112 34.2953 54.7275 34.8647L48.4006 39.4615C48.0501 39.7161 47.9035 40.1675 48.0374 40.5795L50.454 48.0172C50.7534 48.9385 49.6989 49.7047 48.9152 49.1353L42.5883 44.5385C42.2378 44.2839 41.7632 44.2839 41.4127 44.5385L35.0858 49.1353C34.3021 49.7047 33.2477 48.9385 33.547 48.0172L35.9637 40.5795C36.0975 40.1675 35.9509 39.7161 35.6004 39.4615L29.2735 34.8647C28.4898 34.2953 28.8926 33.0557 29.8613 33.0557H37.6817C38.115 33.0557 38.4989 32.7768 38.6328 32.3647L41.0494 24.9271Z" fill="#FFC978"/>
<path d="M79.0494 24.9271C79.3488 24.0058 80.6522 24.0058 80.9516 24.9271L83.3682 32.3647C83.5021 32.7768 83.886 33.0557 84.3193 33.0557H92.1397C93.1084 33.0557 93.5112 34.2953 92.7275 34.8647L86.4006 39.4615C86.0501 39.7161 85.9035 40.1675 86.0374 40.5795L88.454 48.0172C88.7534 48.9385 87.6989 49.7047 86.9152 49.1353L80.5883 44.5385C80.2378 44.2839 79.7632 44.2839 79.4127 44.5385L73.0858 49.1353C72.3021 49.7047 71.2477 48.9385 71.547 48.0172L73.9637 40.5795C74.0975 40.1675 73.9509 39.7161 73.6004 39.4615L67.2735 34.8647C66.4898 34.2953 66.8926 33.0557 67.8613 33.0557H75.6817C76.115 33.0557 76.4989 32.7768 76.6328 32.3647L79.0494 24.9271Z" fill="#FFC978"/>
<path d="M117.049 24.9271C117.349 24.0058 118.652 24.0058 118.952 24.9271L121.368 32.3647C121.502 32.7768 121.886 33.0557 122.319 33.0557H130.14C131.108 33.0557 131.511 34.2953 130.728 34.8647L124.401 39.4615C124.05 39.7161 123.904 40.1675 124.037 40.5795L126.454 48.0172C126.753 48.9385 125.699 49.7047 124.915 49.1353L118.588 44.5385C118.238 44.2839 117.763 44.2839 117.413 44.5385L111.086 49.1353C110.302 49.7047 109.248 48.9385 109.547 48.0172L111.964 40.5795C112.098 40.1675 111.951 39.7161 111.6 39.4615L105.274 34.8647C104.49 34.2953 104.893 33.0557 105.861 33.0557H113.682C114.115 33.0557 114.499 32.7768 114.633 32.3647L117.049 24.9271Z" fill="#FFC978"/>
<path d="M155.049 24.9271C155.349 24.0058 156.652 24.0058 156.952 24.9271L159.368 32.3647C159.502 32.7768 159.886 33.0557 160.319 33.0557H168.14C169.108 33.0557 169.511 34.2953 168.728 34.8647L162.401 39.4615C162.05 39.7161 161.904 40.1675 162.037 40.5795L164.454 48.0172C164.753 48.9385 163.699 49.7047 162.915 49.1353L156.588 44.5385C156.238 44.2839 155.763 44.2839 155.413 44.5385L149.086 49.1353C148.302 49.7047 147.248 48.9385 147.547 48.0172L149.964 40.5795C150.098 40.1675 149.951 39.7161 149.6 39.4615L143.274 34.8647C142.49 34.2953 142.893 33.0557 143.861 33.0557H151.682C152.115 33.0557 152.499 32.7768 152.633 32.3647L155.049 24.9271Z" fill="#D9D9D9"/>
<path d="M193.049 24.9271C193.349 24.0058 194.652 24.0058 194.952 24.9271L197.368 32.3647C197.502 32.7768 197.886 33.0557 198.319 33.0557H206.14C207.108 33.0557 207.511 34.2953 206.728 34.8647L200.401 39.4615C200.05 39.7161 199.904 40.1675 200.037 40.5795L202.454 48.0172C202.753 48.9385 201.699 49.7047 200.915 49.1353L194.588 44.5385C194.238 44.2839 193.763 44.2839 193.413 44.5385L187.086 49.1353C186.302 49.7047 185.248 48.9385 185.547 48.0172L187.964 40.5795C188.098 40.1675 187.951 39.7161 187.6 39.4615L181.274 34.8647C180.49 34.2953 180.893 33.0557 181.861 33.0557H189.682C190.115 33.0557 190.499 32.7768 190.633 32.3647L193.049 24.9271Z" fill="#D9D9D9"/>
</g>
<defs>
<filter id="filter0_d_72_4322" x="0" y="0" width="236" height="76" filterUnits="userSpaceOnUse" color-interpolation-filters="sRGB">
<feFlood flood-opacity="0" result="BackgroundImageFix"/>
<feColorMatrix in="SourceAlpha" type="matrix" values="0 0 0 0 0 0 0 0 0 0 0 0 0 0 0 0 0 0 127 0" result="hardAlpha"/>
<feMorphology radius="2" operator="erode" in="SourceAlpha" result="effect1_dropShadow_72_4322"/>
<feOffset/>
<feGaussianBlur stdDeviation="6"/>
<feComposite in2="hardAlpha" operator="out"/>
<feColorMatrix type="matrix" values="0 0 0 0 0 0 0 0 0 0 0 0 0 0 0 0 0 0 0.25098 0"/>
<feBlend mode="normal" in2="BackgroundImageFix" result="effect1_dropShadow_72_4322"/>
<feBlend mode="normal" in="SourceGraphic" in2="effect1_dropShadow_72_4322" result="shape"/>
</filter>
</defs>
</svg>
