<svg width="20" height="14" viewBox="0 0 20 14" fill="none" xmlns="http://www.w3.org/2000/svg">
<path fill-rule="evenodd" clip-rule="evenodd" d="M16.82 0.117091C18.0187 0.185818 18.6075 0.366545 19.15 1.34909C19.715 2.33036 20 4.02055 20 6.99745V7.00127V7.00764C20 9.97055 19.715 11.6735 19.1513 12.6445C18.6088 13.6271 18.02 13.8053 16.8213 13.888C15.6225 13.958 12.6112 14 10.0025 14C7.38875 14 4.37625 13.958 3.17875 13.8867C1.9825 13.804 1.39375 13.6258 0.84625 12.6433C0.2875 11.6722 0 9.96927 0 7.00636V7.00382V7V6.99618C0 4.02055 0.2875 2.33036 0.84625 1.34909C1.39375 0.365273 1.98375 0.185818 3.18 0.115818C4.37625 0.0343636 7.38875 0 10.0025 0C12.6112 0 15.6225 0.0343636 16.82 0.117091ZM13.75 7L7.5 3.18182V10.8182L13.75 7Z" fill="#8A8A8F"/>
</svg>
