<svg width="14" height="14" viewBox="0 0 14 14" fill="none" xmlns="http://www.w3.org/2000/svg">
<path opacity="0.9" fill-rule="evenodd" clip-rule="evenodd" d="M11.0197 5.50984C11.0197 6.66941 10.6615 7.74532 10.0497 8.63294L13.7077 12.291C14.0983 12.6815 14.097 13.3159 13.7065 13.7065C13.3159 14.097 12.6815 14.0983 12.291 13.7077L8.63294 10.0497C7.74532 10.6615 6.66941 11.0197 5.50984 11.0197C2.46684 11.0197 0 8.55284 0 5.50984C0 2.46684 2.46684 0 5.50984 0C8.55284 0 11.0197 2.46684 11.0197 5.50984ZM5.50984 10.0179C7.99957 10.0179 10.0179 7.99957 10.0179 5.50984C10.0179 3.02011 7.99957 1.00179 5.50984 1.00179C3.02011 1.00179 1.00179 3.02011 1.00179 5.50984C1.00179 7.99957 3.02011 10.0179 5.50984 10.0179Z" fill="#8A8A8F"/>
</svg>
