<svg width="33" height="32" viewBox="0 0 33 32" fill="none" xmlns="http://www.w3.org/2000/svg">
<path fill-rule="evenodd" clip-rule="evenodd" d="M30.2038 8.00005L26.4475 5.85625L24.2793 2.1438H19.9425L16.1862 0L12.43 2.1438H8.09311L5.92435 5.85681L2.16876 8.00005V12.287L0 16L2.16876 19.713V24L5.925 26.1438L8.09376 29.8568H12.4306L16.1863 32L19.9426 29.8562H24.2794L26.4482 26.1432L30.2044 23.9994V19.7125L32.3732 15.9994L30.2044 12.2864V8.00005H30.2038ZM14.7253 22.5486C14.4235 22.847 14.0259 22.992 13.6301 22.9865C13.2341 22.9921 12.8366 22.847 12.5348 22.5486L7.80087 17.8692C7.20787 17.283 7.20787 16.3321 7.80087 15.7459L9.05408 14.5071C9.64709 13.921 10.6091 13.921 11.2021 14.5071L13.6301 16.9071L21.17 9.45349C21.763 8.86731 22.725 8.86731 23.318 9.45349L24.5712 10.6923C25.1642 11.2785 25.1642 12.2294 24.5712 12.8156L14.7253 22.5486Z" fill="#FF61AD"/>
</svg>
