<svg width="375" height="88" viewBox="0 0 375 88" fill="none" xmlns="http://www.w3.org/2000/svg">
<rect width="375" height="88" fill="white"/>
<path fill-rule="evenodd" clip-rule="evenodd" d="M344 65.5C344 66.8807 342.881 68 341.5 68C340.119 68 339 66.8807 339 65.5C339 64.1193 340.119 63 341.5 63C342.881 63 344 64.1193 344 65.5ZM351.5 65.5C351.5 66.8807 350.381 68 349 68C347.619 68 346.5 66.8807 346.5 65.5C346.5 64.1193 347.619 63 349 63C350.381 63 351.5 64.1193 351.5 65.5ZM356.5 68C357.881 68 359 66.8807 359 65.5C359 64.1193 357.881 63 356.5 63C355.119 63 354 64.1193 354 65.5C354 66.8807 355.119 68 356.5 68Z" fill="black"/>
<path d="M12.6213 65.5L20.5607 57.5607C21.1464 56.9749 21.1464 56.0251 20.5607 55.4393C19.9749 54.8536 19.0251 54.8536 18.4393 55.4393L9.43934 64.4393C8.85355 65.0251 8.85355 65.9749 9.43934 66.5607L18.4393 75.5607C19.0251 76.1464 19.9749 76.1464 20.5607 75.5607C21.1464 74.9749 21.1464 74.0251 20.5607 73.4393L12.6213 65.5Z" fill="black"/>
</svg>
