<svg width="23" height="24" viewBox="0 0 23 24" fill="none" xmlns="http://www.w3.org/2000/svg">
<path fill-rule="evenodd" clip-rule="evenodd" d="M5 2V18H14C14.5523 18 15 18.4477 15 19C15 20.6567 16.3433 22 18 22C19.6567 22 21 20.6567 21 19V2H5ZM5 24H18C20.7613 24 23 21.7613 23 19V1C23 0.447715 22.5523 0 22 0H4C3.44772 0 3 0.447715 3 1V18H1C0.447715 18 0 18.4477 0 19C0 21.7613 2.23872 24 5 24ZM12 9V11H18V9H12ZM8 11V9H10V11H8ZM12 13V15H18V13H12ZM8 15V13H10V15H8ZM12 5V7H18V5H12ZM8 7V5H10V7H8Z" fill="#C8C7CC"/>
</svg>
