<svg width="55" height="10" viewBox="0 0 55 10" fill="none" xmlns="http://www.w3.org/2000/svg">
<path fill-rule="evenodd" clip-rule="evenodd" d="M47.0686 6.08549L45.8247 10L49.0024 7.42753L52.3698 9.79339L52.3564 9.7545L52.3957 9.78177L51.0869 6.04285L54.0618 4.03064L50.3789 4.00344L49.0024 0L47.7364 3.98392L44 3.95632L47.0686 6.08549Z" fill="#C8C7CC"/>
<path fill-rule="evenodd" clip-rule="evenodd" d="M36.0686 6.08549L34.8247 10L38.0024 7.42753L41.3698 9.79339L41.3564 9.7545L41.3957 9.78177L40.0869 6.04285L43.0618 4.03064L39.3789 4.00344L38.0024 0L36.7364 3.98392L33 3.95632L36.0686 6.08549Z" fill="#FF9500"/>
<path fill-rule="evenodd" clip-rule="evenodd" d="M25.0686 6.08549L23.8247 10L27.0024 7.42753L30.3698 9.79339L30.3564 9.7545L30.3957 9.78177L29.0869 6.04285L32.0618 4.03064L28.3789 4.00344L27.0024 0L25.7364 3.98392L22 3.95632L25.0686 6.08549Z" fill="#FF9500"/>
<path fill-rule="evenodd" clip-rule="evenodd" d="M14.0686 6.08549L12.8247 10L16.0024 7.42753L19.3698 9.79339L19.3564 9.7545L19.3957 9.78177L18.0869 6.04285L21.0618 4.03064L17.3789 4.00344L16.0024 0L14.7364 3.98392L11 3.95632L14.0686 6.08549Z" fill="#FF9500"/>
<path fill-rule="evenodd" clip-rule="evenodd" d="M3.06858 6.08549L1.82466 10L5.00237 7.42753L8.36976 9.79339L8.35639 9.7545L8.39569 9.78177L7.08688 6.04285L10.0618 4.03064L6.37893 4.00344L5.00237 0L3.7364 3.98392L0 3.95632L3.06858 6.08549Z" fill="#FF9500"/>
</svg>
