<svg width="20" height="20" viewBox="0 0 20 20" fill="none" xmlns="http://www.w3.org/2000/svg">
<path fill-rule="evenodd" clip-rule="evenodd" d="M15.3216 1.68643C15.3489 1.61331 15.3178 1.52321 15.2486 1.48326L14.7514 1.19623C14.6837 1.15714 14.5886 1.17438 14.539 1.23461L13.7815 2.15469C13.7319 2.21497 13.6319 2.23898 13.5617 2.20983L12.9899 1.97218C12.9182 1.94236 12.8661 1.85516 12.8736 1.77756L12.9885 0.592279C12.9961 0.51462 12.9426 0.43571 12.8654 0.415031L12.3109 0.266452C12.2354 0.246221 12.148 0.287413 12.1158 0.358338L11.6229 1.44166C11.5906 1.51264 11.5002 1.56174 11.4248 1.55184L10.8104 1.47119C10.7332 1.46106 10.6603 1.39043 10.6475 1.31355L10.4518 0.139306C10.439 0.0623694 10.3669 0 10.287 0H9.71297C9.6348 0 9.56102 0.0624795 9.54819 0.139422L9.35232 1.31465C9.33949 1.39165 9.26489 1.46256 9.18961 1.47253L8.57595 1.55376C8.49892 1.56395 8.41024 1.51453 8.37792 1.4435L7.88433 0.358534C7.85199 0.287447 7.76623 0.245774 7.68906 0.266452L7.13456 0.415031C7.05905 0.435263 7.00396 0.514738 7.01149 0.592413L7.12651 1.77882C7.13405 1.85655 7.08032 1.9443 7.01014 1.97331L6.43808 2.2098C6.36627 2.23948 6.26781 2.21465 6.21823 2.15442L5.46099 1.23458C5.41137 1.17432 5.31777 1.15628 5.24858 1.19623L4.75142 1.48326C4.68373 1.52235 4.65105 1.6133 4.67839 1.68628L5.09603 2.80106C5.12339 2.8741 5.09413 2.97276 5.0338 3.01901L4.54201 3.39609C4.48028 3.44341 4.37875 3.44501 4.31534 3.39972L3.34687 2.70795C3.28342 2.66263 3.18839 2.66947 3.13189 2.72597L2.72597 3.13189C2.6707 3.18717 2.66268 3.28349 2.708 3.34694L3.40016 4.31596C3.44551 4.37945 3.4429 4.48236 3.39674 4.54267L3.02036 5.03439C2.97312 5.09611 2.87549 5.12391 2.80243 5.09654L1.68643 4.67845C1.61331 4.65105 1.52321 4.68223 1.48326 4.75142L1.19623 5.24858C1.15714 5.31627 1.17438 5.41142 1.23461 5.46101L2.15469 6.21845C2.21497 6.26808 2.23898 6.36812 2.20983 6.43826L1.97218 7.01007C1.94236 7.08184 1.85516 7.13391 1.77756 7.12639L0.592279 7.01147C0.51462 7.00394 0.43571 7.05738 0.415031 7.13456L0.266452 7.68906C0.246221 7.76457 0.287413 7.85198 0.358338 7.88425L1.44166 8.37708C1.51264 8.40937 1.56174 8.49982 1.55184 8.5752L1.47119 9.18964C1.46106 9.26676 1.39043 9.33969 1.31355 9.3525L0.139306 9.54821C0.0623694 9.56103 0 9.63307 0 9.71297V10.287C0 10.3652 0.0624795 10.439 0.139422 10.4518L1.31465 10.6477C1.39165 10.6605 1.46256 10.7351 1.47253 10.8104L1.55376 11.4241C1.56395 11.5011 1.51453 11.5898 1.4435 11.6221L0.358534 12.1157C0.287447 12.148 0.245774 12.2338 0.266452 12.3109L0.415031 12.8654C0.435263 12.9409 0.514738 12.996 0.592413 12.9885L1.77882 12.8735C1.85655 12.866 1.9443 12.9197 1.97331 12.9899L2.2098 13.5619C2.23948 13.6337 2.21465 13.7322 2.15442 13.7818L1.23458 14.539C1.17432 14.5886 1.15628 14.6822 1.19623 14.7514L1.48326 15.2486C1.52235 15.3163 1.6133 15.349 1.68628 15.3216L2.80106 14.904C2.8741 14.8766 2.97276 14.9059 3.01901 14.9662L3.39609 15.458C3.44341 15.5197 3.44501 15.6213 3.39972 15.6847L2.70795 16.6531C2.66263 16.7166 2.66947 16.8116 2.72597 16.8681L3.13189 17.274C3.18717 17.3293 3.28349 17.3373 3.34694 17.292L4.31596 16.5998C4.37945 16.5545 4.48236 16.5571 4.54267 16.6033L5.03439 16.9796C5.09611 17.0269 5.12391 17.1245 5.09654 17.1976L4.67845 18.3136C4.65105 18.3867 4.68223 18.4768 4.75142 18.5167L5.24858 18.8038C5.31627 18.8429 5.41142 18.8256 5.46101 18.7654L6.21845 17.8453C6.26808 17.785 6.36812 17.761 6.43826 17.7902L7.01007 18.0278C7.08184 18.0576 7.13391 18.1448 7.12639 18.2224L7.01147 19.4077C7.00394 19.4854 7.05738 19.5643 7.13456 19.585L7.68906 19.7335C7.76457 19.7538 7.85198 19.7126 7.88425 19.6417L8.37708 18.5583C8.40937 18.4874 8.49982 18.4383 8.5752 18.4482L9.18964 18.5288C9.26676 18.5389 9.33969 18.6096 9.3525 18.6865L9.54821 19.8607C9.56103 19.9376 9.63307 20 9.71297 20H10.287C10.3652 20 10.439 19.9375 10.4518 19.8606L10.6477 18.6854C10.6605 18.6084 10.7351 18.5374 10.8104 18.5275L11.4241 18.4462C11.5011 18.4361 11.5898 18.4855 11.6221 18.5565L12.1157 19.6415C12.148 19.7126 12.2338 19.7542 12.3109 19.7335L12.8654 19.585C12.9409 19.5647 12.996 19.4853 12.9885 19.4076L12.8735 18.2212C12.866 18.1434 12.9197 18.0557 12.9899 18.0267L13.5619 17.7902C13.6337 17.7605 13.7322 17.7854 13.7818 17.8456L14.539 18.7654C14.5886 18.8257 14.6822 18.8437 14.7514 18.8038L15.2486 18.5167C15.3163 18.4777 15.349 18.3867 15.3216 18.3137L14.904 17.1989C14.8766 17.1259 14.9059 17.0272 14.9662 16.981L15.458 16.6039C15.5197 16.5566 15.6213 16.555 15.6847 16.6003L16.6531 17.292C16.7166 17.3374 16.8116 17.3305 16.8681 17.274L17.274 16.8681C17.3293 16.8128 17.3373 16.7165 17.292 16.6531L16.5998 15.684C16.5545 15.6205 16.5571 15.5176 16.6033 15.4573L16.9796 14.9656C17.0269 14.9039 17.1245 14.8761 17.1976 14.9035L18.3136 15.3216C18.3867 15.3489 18.4768 15.3178 18.5167 15.2486L18.8038 14.7514C18.8429 14.6837 18.8256 14.5886 18.7654 14.539L17.8453 13.7815C17.785 13.7319 17.761 13.6319 17.7902 13.5617L18.0278 12.9899C18.0576 12.9182 18.1448 12.8661 18.2224 12.8736L19.4077 12.9885C19.4854 12.9961 19.5643 12.9426 19.585 12.8654L19.7335 12.3109C19.7538 12.2354 19.7126 12.148 19.6417 12.1158L18.5583 11.6229C18.4874 11.5906 18.4383 11.5002 18.4482 11.4248L18.5288 10.8104C18.5389 10.7332 18.6096 10.6603 18.6865 10.6475L19.8607 10.4518C19.9376 10.439 20 10.3669 20 10.287V9.71297C20 9.6348 19.9375 9.56102 19.8606 9.54819L18.6854 9.35232C18.6084 9.33949 18.5374 9.26489 18.5275 9.18961L18.4462 8.57595C18.4361 8.49892 18.4855 8.41024 18.5565 8.37792L19.6415 7.88433C19.7126 7.85199 19.7542 7.76623 19.7335 7.68906L19.585 7.13456C19.5647 7.05905 19.4853 7.00396 19.4076 7.01149L18.2212 7.12651C18.1434 7.13405 18.0557 7.08032 18.0267 7.01014L17.7902 6.43808C17.7605 6.36627 17.7854 6.26781 17.8456 6.21823L18.7654 5.46099C18.8257 5.41137 18.8437 5.31777 18.8038 5.24858L18.5167 4.75142C18.4777 4.68373 18.3867 4.65105 18.3137 4.67839L17.1989 5.09603C17.1259 5.12339 17.0272 5.09413 16.981 5.0338L16.6039 4.54201C16.5566 4.48028 16.555 4.37875 16.6003 4.31534L17.292 3.34687C17.3374 3.28342 17.3305 3.18839 17.274 3.13189L16.8681 2.72597C16.8128 2.6707 16.7165 2.66268 16.6531 2.708L15.684 3.40016C15.6205 3.44551 15.5176 3.4429 15.4573 3.39674L14.9656 3.02036C14.9039 2.97312 14.8761 2.87549 14.9035 2.80243L15.3216 1.68643ZM16.5978 8.16745C16.1337 6.49701 15.0397 5.00042 13.4196 4.06508C11.8087 3.13503 9.97733 2.93288 8.30629 3.35659C7.98433 3.43822 8.17323 3.39351 8.17323 3.39351C7.72465 3.54646 7.54617 4.00827 7.77209 4.42043C7.77209 4.42043 7.64179 4.18272 7.78219 4.43885C8.45212 5.66109 9.7931 8.10759 9.7931 8.10759C10.0964 8.66094 10.8537 9.09889 11.4855 9.08576C11.4855 9.08576 14.4565 9.02404 15.9427 8.99317C16.2188 8.98743 15.9427 8.99317 15.9427 8.99317C16.4002 8.98366 16.6972 8.59836 16.5978 8.16745C16.6716 8.43308 16.5978 8.16745 16.5978 8.16745ZM8.15432 16.6085C9.82521 17.071 11.6715 16.9041 13.3076 15.9971C14.9345 15.0953 16.051 13.6296 16.5485 11.9791C16.6443 11.661 16.5854 11.846 16.5854 11.846C16.6853 11.3827 16.3814 10.9919 15.9117 10.9732C15.9117 10.9732 16.1826 10.984 15.8907 10.9724C14.498 10.9171 11.7103 10.8065 11.7103 10.8065C11.0798 10.7815 10.3144 11.2051 10.0002 11.7534C10.0002 11.7534 8.52293 14.3319 7.78396 15.6217C7.64667 15.8613 7.78396 15.6217 7.78396 15.6217C7.55649 16.0187 7.73376 16.4718 8.15432 16.6085C7.88862 16.535 8.15432 16.6085 8.15432 16.6085ZM5.19664 14.9053C3.96066 13.6895 3.18209 12.0071 3.14944 10.1367C3.11698 8.27689 3.82806 6.57711 5.00878 5.32099C5.23626 5.07898 5.10558 5.22252 5.10558 5.22252C5.45683 4.90434 5.94726 4.97212 6.19822 5.36953C6.19822 5.36953 6.05348 5.14033 6.20944 5.38729C6.95364 6.56578 8.44328 8.92472 8.44328 8.92472C8.78021 9.45826 8.79611 10.3329 8.47834 10.8791C8.47834 10.8791 6.98395 13.4477 6.23644 14.7326C6.09756 14.9713 6.23644 14.7326 6.23644 14.7326C6.00634 15.1281 5.52534 15.2011 5.19664 14.9053C5.39318 15.0986 5.19664 14.9053 5.19664 14.9053Z" fill="black"/>
</svg>
