<svg width="10" height="10" viewBox="0 0 10 10" fill="none" xmlns="http://www.w3.org/2000/svg">
<path d="M6.41393 5C6.41393 5 9.55277 8.13884 9.70676 8.29284C10.0977 8.68382 10.0977 9.31678 9.70676 9.70676C9.31578 10.0977 8.68282 10.0977 8.29284 9.70676C8.13884 9.55377 5 6.41393 5 6.41393C5 6.41393 1.86116 9.55277 1.70716 9.70676C1.31618 10.0977 0.683216 10.0977 0.293235 9.70676C-0.0977451 9.31578 -0.0977451 8.68282 0.293235 8.29284C0.446228 8.13884 3.58607 5 3.58607 5C3.58607 5 0.447228 1.86116 0.293235 1.70716C-0.0977451 1.31618 -0.0977451 0.683216 0.293235 0.293235C0.684216 -0.0977451 1.31718 -0.0977451 1.70716 0.293235C1.86116 0.446228 5 3.58607 5 3.58607C5 3.58607 8.13884 0.447228 8.29284 0.293235C8.68382 -0.0977451 9.31678 -0.0977451 9.70676 0.293235C10.0977 0.684216 10.0977 1.31718 9.70676 1.70716C9.55377 1.86116 6.41393 5 6.41393 5Z" fill="#C8C7CC"/>
</svg>
