<svg width="18" height="19" viewBox="0 0 18 19" fill="none" xmlns="http://www.w3.org/2000/svg">
<path fill-rule="evenodd" clip-rule="evenodd" d="M2.60542 1.72727C2.40104 1.72727 2.18592 1.81598 2.01332 2.00616C1.83819 2.19913 1.72727 2.4773 1.72727 2.78283V16.2172C1.72727 16.5227 1.83819 16.8009 2.01332 16.9938C2.18592 17.184 2.40105 17.2727 2.60542 17.2727H12.1925V8.99198V2.78283C12.1925 2.4773 12.0816 2.19913 11.9065 2.00616C11.7339 1.81598 11.5187 1.72727 11.3144 1.72727H2.60542ZM2.60542 19H13.0561H15.0882C15.8562 19 16.5928 18.6949 17.1358 18.1519C17.6789 17.6088 17.984 16.8723 17.984 16.1043V8.99198C17.984 8.515 17.5973 8.12834 17.1203 8.12834H13.9198V2.78283C13.9198 2.07035 13.6637 1.37222 13.1855 0.845345C12.7048 0.315687 12.0339 0 11.3144 0H2.60542C1.8859 0 1.21497 0.315687 0.734269 0.845345C0.256097 1.37222 0 2.07035 0 2.78283V16.2172C0 16.9296 0.256097 17.6278 0.734269 18.1546C1.21497 18.6843 1.8859 19 2.60542 19ZM13.9198 17.2727V9.85561H16.2567V16.1043C16.2567 16.4142 16.1336 16.7114 15.9144 16.9305C15.6953 17.1496 15.3981 17.2727 15.0882 17.2727H13.9198ZM4.92781 5.08021C4.45083 5.08021 4.06417 5.46688 4.06417 5.94385C4.06417 6.42082 4.45083 6.80748 4.92781 6.80748H8.99198C9.46895 6.80748 9.85561 6.42082 9.85561 5.94385C9.85561 5.46688 9.46895 5.08021 8.99198 5.08021H4.92781ZM4.06417 8.99198C4.06417 8.515 4.45083 8.12834 4.92781 8.12834H8.99198C9.46895 8.12834 9.85561 8.515 9.85561 8.99198C9.85561 9.46895 9.46895 9.85561 8.99198 9.85561H4.92781C4.45083 9.85561 4.06417 9.46895 4.06417 8.99198ZM4.92781 12.1925C4.45083 12.1925 4.06417 12.5792 4.06417 13.0561C4.06417 13.5331 4.45083 13.9198 4.92781 13.9198H7.97593C8.45291 13.9198 8.83957 13.5331 8.83957 13.0561C8.83957 12.5792 8.45291 12.1925 7.97593 12.1925H4.92781Z" fill="#7C8DB5"/>
</svg>
