<svg width="30" height="32" viewBox="0 0 30 32" fill="none" xmlns="http://www.w3.org/2000/svg">
<path fill-rule="evenodd" clip-rule="evenodd" d="M8.72603 25.4784C4.62234 22.1546 1.22016 17.6962 0.177438 12.5263C-0.0697581 11.3013 -0.152979 9.92748 0.5658 8.90451C1.49201 7.58666 3.39653 7.37235 4.96878 7.73395C9.54159 8.78521 12.3754 13.223 14.7157 17.2811C14.5333 14.3468 14.3536 11.3714 14.946 8.49157C15.5384 5.61174 17.0049 2.7888 19.4769 1.18808C21.9488 -0.412648 25.5159 -0.482752 27.6812 1.51154C30.2881 3.91201 30.0132 8.17886 28.5436 11.4006C26.7941 15.2348 23.7458 18.3296 21.6912 22.0101C20.8177 23.5751 20.1599 25.3093 19.8936 27.0834C19.6587 28.6516 20.3165 30.7117 19.6409 32C15.8047 30.724 11.8548 28.0151 8.72603 25.4784Z" fill="#FF61AD"/>
</svg>
