<svg width="10" height="10" viewBox="0 0 10 10" fill="none" xmlns="http://www.w3.org/2000/svg">
<path fill-rule="evenodd" clip-rule="evenodd" d="M7.96954 1.47314V8.55329C7.96954 8.79159 7.77636 8.98477 7.53807 8.98477C7.29977 8.98477 7.10659 8.79159 7.10659 8.55329V1.47314L5.81271 2.76702C5.64421 2.93552 5.37101 2.93552 5.20251 2.76702C5.03401 2.59852 5.03401 2.32533 5.20251 2.15683L7.23297 0.126376C7.40147 -0.0421253 7.67466 -0.0421253 7.84316 0.126376L9.87362 2.15683C10.0421 2.32533 10.0421 2.59852 9.87362 2.76702C9.70512 2.93552 9.43193 2.93552 9.26343 2.76702L7.96954 1.47314ZM2.8934 1.4467C2.8934 1.2084 2.70022 1.01523 2.46193 1.01523C2.22363 1.01523 2.03046 1.2084 2.03046 1.4467V8.52686L0.736568 7.23297C0.568068 7.06447 0.294875 7.06447 0.126375 7.23297C-0.0421251 7.40147 -0.0421251 7.67466 0.126375 7.84316L2.15683 9.87362C2.32533 10.0421 2.59852 10.0421 2.76702 9.87362L4.79748 7.84316C4.96598 7.67466 4.96598 7.40147 4.79748 7.23297C4.62898 7.06447 4.35579 7.06447 4.18729 7.23297L2.8934 8.52686V1.4467Z" fill="#7C8DB5"/>
</svg>
