<svg width="20" height="18" viewBox="0 0 20 18" fill="none" xmlns="http://www.w3.org/2000/svg">
<path fill-rule="evenodd" clip-rule="evenodd" d="M15.9391 3.68302C15.9391 3.10528 15.9398 2.68934 15.9677 2.3643C15.9961 2.03233 16.0461 1.91055 16.0699 1.87094C16.076 1.86072 16.0785 1.85896 16.0817 1.85662L16.0822 1.85626C16.0887 1.85143 16.1166 1.83268 16.1872 1.81089C16.3455 1.76204 16.6205 1.72589 17.1066 1.72589C17.5926 1.72589 17.8677 1.76204 18.026 1.81089C18.0966 1.83268 18.1244 1.85143 18.131 1.85626L18.1315 1.85662C18.1347 1.85896 18.1371 1.86072 18.1433 1.87094C18.167 1.91055 18.2171 2.03233 18.2455 2.3643C18.2734 2.68934 18.2741 3.10528 18.2741 3.68302V3.69628V3.70963V3.72307V3.7366V3.75021V3.7639V3.77769V3.79155V3.80551V3.81954V3.83367V3.84787V3.86216V3.87653V3.89099V3.90553V3.92015V3.93485V3.94964V3.9645V3.97945V3.99448V4.00958V4.02477V4.04004V4.05538V4.07081V4.08631V4.10189V4.11755V4.13329V4.1491V4.165V4.18096V4.19701V4.21313V4.22932V4.24559V4.26193V4.27835V4.29485V4.31141V4.32805V4.34477V4.36155V4.37841V4.39534V4.41234V4.42942V4.44656V4.46378V4.48106V4.49842V4.51584V4.53334V4.5509V4.56853V4.58623V4.604V4.62183V4.63973V4.6577V4.67574V4.69384V4.71201V4.73024V4.74854V4.7669V4.78533V4.80382V4.82238V4.841V4.85968V4.87843V4.89723V4.9161V4.93503V4.95403V4.97308V4.99219V5.01137V5.0306V5.0499V5.06925V5.08866V5.10813V5.12766V5.14725V5.1669V5.1866V5.20636V5.22617V5.24605V5.26597V5.28596V5.306V5.32609V5.34624V5.36644V5.3867V5.40701V5.42737V5.44778V5.46825V5.48877V5.50934V5.52997V5.55064V5.57137V5.59214V5.61297V5.63384V5.65477V5.67574V5.69677V5.71784V5.73896V5.76012V5.78134V5.8026V5.8239V5.84526V5.86666V5.8881V5.90959V5.93113V5.95271V5.97433V5.996V6.01771V6.03947V6.06127V6.08311V6.10499V6.12691V6.14888V6.17089V6.19293V6.21502V6.23715V6.25932V6.28153V6.30377V6.32606V6.34838V6.37074V6.39314V6.41558V6.43805V6.46056V6.48311V6.50569V6.52831V6.55097V6.57366V6.59638V6.61914V6.64193V6.66476V6.68761V6.71051V6.73343V6.75639V6.77937V6.80239V6.82545V6.84853V6.87164V6.89478V6.91796V6.94116V6.96439V6.98765V7.01094V7.03425V7.0576V7.08097V7.10437V7.12779V7.15125V7.17472V7.19823V7.22176V7.24531V7.26889V7.29249V7.31612V7.33977V7.36345V7.38714V7.41086V7.4346V7.45837V7.48215V7.50596V7.52979V7.55364V7.57751V7.60139V7.6253V7.64923V7.67318V7.69714V7.72112V7.74512V7.76914V7.79318V7.81723V7.8413V7.86538V7.88948V7.9136V7.93773V7.96187V7.98603V8.01021V8.0344V8.0586V8.08281V8.10704V8.13128V8.15553V8.17979V8.20407V8.22835V8.25265V8.27695V8.30127V8.32559V8.34993V8.37427V8.39863V8.42299V8.44736V8.47173V8.49612V8.5205V8.5449V8.5693V8.59371V8.61813V8.64255V8.66697V8.6914V8.71583V8.74027V8.76471V8.78915V8.8136V8.83804V8.86249V8.88695V8.9114V8.93586V8.96031V8.98476V9.00922V9.03368V9.05813V9.08258V9.10703V9.13148V9.15593V9.18038V9.20482V9.22926V9.2537V9.27813V9.30256V9.32698V9.3514V9.37582V9.40023V9.42463V9.44902V9.47342V9.4978V9.52217V9.54654V9.5709V9.59526V9.6196V9.64393V9.66826V9.69258V9.71688V9.74118V9.76546V9.78974V9.814V9.83825V9.86249V9.88672V9.91093V9.93513V9.95932V9.9835V10.0077V10.0318V10.0559V10.08V10.1041V10.1282V10.1523V10.1764V10.2004V10.2244V10.2484V10.2724V10.2964V10.3203V10.3442V10.3681V10.392V10.4159V10.4397V10.4636V10.4874V10.5112V10.5349V10.5587V10.5824V10.6061V10.6298V10.6534V10.677V10.7006V10.7242V10.7478V10.7713V10.7948V10.8183V10.8417V10.8652V10.8886V10.9119V10.9353V10.9586V10.9819V11.0051V11.0284V11.0516V11.0747V11.0979V11.121V11.1441V11.1671V11.1902V11.2131V11.2361V11.259V11.2819V11.3048V11.3276V11.3504V11.3731V11.3959V11.4186V11.4412V11.4638V11.4864V11.509V11.5315V11.5539V11.5764V11.5988V11.6211V11.6435V11.6658V11.688V11.7102V11.7324V11.7545V11.7766V11.7986V11.8207V11.8426V11.8645V11.8864V11.9083V11.9301V11.9518V11.9735V11.9952V12.0168V12.0384V12.0599V12.0814V12.1029V12.1243V12.1456V12.1669V12.1882V12.2094V12.2306V12.2517V12.2728V12.2938V12.3148V12.3357V12.3566V12.3774V12.3982V12.4189V12.4396V12.4602V12.4808V12.5013V12.5217V12.5422V12.5625V12.5828V12.6031V12.6233V12.6434V12.6635V12.6836V12.7036V12.7235V12.7434V12.7632V12.7829V12.8026V12.8223V12.8419V12.8614V12.8809V12.9003V12.9196V12.9389V12.9582V12.9773V12.9964V13.0155V13.0345V13.0534V13.0723V13.0911V13.1098V13.1285V13.1472V13.1657V13.1842V13.2026V13.221V13.2393V13.2575V13.2757V13.2938V13.3118V13.3298V13.3477V13.3655V13.3833V13.401V13.4186V13.4362V13.4537V13.4711V13.4885V13.5058V13.523V13.5401V13.5572V13.5742V13.5911V13.608V13.6248V13.6415V13.6581V13.6747V13.6912V13.7076V13.7239V13.7402V13.7564V13.7725V13.7886V13.8045V13.8204V13.8362V13.852V13.8676V13.8832V13.8987V13.9141V13.9295V13.9448V13.9599V13.9751V13.9901V14.005V14.0199V14.0347V14.0494V14.064V14.0785V14.093V14.1074V14.1217V14.1359V14.15V14.164V14.178V14.1918V14.2056V14.2193V14.2329V14.2465V14.2599V14.2732V14.2865C18.2741 14.9689 18.2353 15.4312 18.1715 15.7448C18.1074 16.0598 18.0328 16.1488 18.02 16.1622C18.0155 16.1671 18.0113 16.1709 17.9981 16.1772C17.9809 16.1853 17.9432 16.1994 17.8696 16.2121C17.7014 16.241 17.4809 16.2436 17.1066 16.2436C16.7265 16.2436 16.5032 16.241 16.3337 16.212C16.2596 16.1993 16.2223 16.1851 16.206 16.1775C16.1938 16.1717 16.1908 16.1686 16.1873 16.1649C16.1762 16.1529 16.1024 16.0652 16.0393 15.7483C15.9766 15.4335 15.9391 14.9701 15.9391 14.2865V3.68302ZM17.1066 0C16.1256 0 15.1175 0.103697 14.59 0.98298C14.3599 1.36638 14.2831 1.80862 14.2481 2.21691C14.2132 2.62412 14.2132 3.11341 14.2132 3.65118V3.65119V3.68302V14.2865C14.2132 15.0129 14.2513 15.6071 14.3466 16.0855C14.4415 16.5617 14.6081 17.0027 14.9264 17.3433C15.2607 17.701 15.6685 17.849 16.0423 17.9131C16.3731 17.9698 16.7425 17.9696 17.0656 17.9695L17.1066 17.9695L17.1469 17.9695C17.4652 17.9696 17.8321 17.9698 18.1622 17.913C18.5349 17.8489 18.9414 17.7011 19.2761 17.3459C19.5956 17.0069 19.7654 16.5671 19.8627 16.089C19.9604 15.6094 20 15.0142 20 14.2865V14.2732V14.2599V14.2465V14.2329V14.2193V14.2056V14.1918V14.178V14.164V14.15V14.1359V14.1217V14.1074V14.093V14.0785V14.064V14.0494V14.0347V14.0199V14.005V13.9901V13.9751V13.9599V13.9448V13.9295V13.9141V13.8987V13.8832V13.8676V13.852V13.8362V13.8204V13.8045V13.7886V13.7725V13.7564V13.7402V13.7239V13.7076V13.6912V13.6747V13.6581V13.6415V13.6248V13.608V13.5911V13.5742V13.5572V13.5401V13.523V13.5058V13.4885V13.4711V13.4537V13.4362V13.4186V13.401V13.3833V13.3655V13.3477V13.3298V13.3118V13.2938V13.2757V13.2575V13.2393V13.221V13.2026V13.1842V13.1657V13.1472V13.1285V13.1098V13.0911V13.0723V13.0534V13.0345V13.0155V12.9964V12.9773V12.9582V12.9389V12.9196V12.9003V12.8809V12.8614V12.8419V12.8223V12.8026V12.7829V12.7632V12.7434V12.7235V12.7036V12.6836V12.6635V12.6434V12.6233V12.6031V12.5828V12.5625V12.5422V12.5217V12.5013V12.4808V12.4602V12.4396V12.4189V12.3982V12.3774V12.3566V12.3357V12.3148V12.2938V12.2728V12.2517V12.2306V12.2094V12.1882V12.1669V12.1456V12.1243V12.1029V12.0814V12.0599V12.0384V12.0168V11.9952V11.9735V11.9518V11.9301V11.9083V11.8864V11.8645V11.8426V11.8207V11.7986V11.7766V11.7545V11.7324V11.7102V11.688V11.6658V11.6435V11.6211V11.5988V11.5764V11.5539V11.5315V11.509V11.4864V11.4638V11.4412V11.4186V11.3959V11.3731V11.3504V11.3276V11.3048V11.2819V11.259V11.2361V11.2131V11.1902V11.1671V11.1441V11.121V11.0979V11.0747V11.0516V11.0284V11.0051V10.9819V10.9586V10.9353V10.9119V10.8886V10.8652V10.8417V10.8183V10.7948V10.7713V10.7478V10.7242V10.7006V10.677V10.6534V10.6298V10.6061V10.5824V10.5587V10.5349V10.5112V10.4874V10.4636V10.4397V10.4159V10.392V10.3681V10.3442V10.3203V10.2964V10.2724V10.2484V10.2244V10.2004V10.1764V10.1523V10.1282V10.1041V10.08V10.0559V10.0318V10.0077V9.9835V9.95932V9.93513V9.91093V9.88672V9.86249V9.83825V9.814V9.78974V9.76546V9.74118V9.71688V9.69258V9.66826V9.64393V9.6196V9.59526V9.5709V9.54654V9.52217V9.4978V9.47342V9.44902V9.42463V9.40023V9.37582V9.3514V9.32698V9.30256V9.27813V9.2537V9.22926V9.20482V9.18038V9.15593V9.13148V9.10703V9.08258V9.05813V9.03368V9.00922V8.98476V8.96031V8.93586V8.9114V8.88695V8.86249V8.83804V8.8136V8.78915V8.76471V8.74027V8.71583V8.6914V8.66697V8.64255V8.61813V8.59371V8.5693V8.5449V8.5205V8.49612V8.47173V8.44736V8.42299V8.39863V8.37427V8.34993V8.32559V8.30127V8.27695V8.25265V8.22835V8.20407V8.17979V8.15553V8.13128V8.10704V8.08281V8.0586V8.0344V8.01021V7.98603V7.96187V7.93773V7.9136V7.88948V7.86538V7.8413V7.81723V7.79318V7.76914V7.74512V7.72112V7.69714V7.67318V7.64923V7.6253V7.60139V7.57751V7.55364V7.52979V7.50596V7.48215V7.45837V7.4346V7.41086V7.38714V7.36345V7.33977V7.31612V7.29249V7.26889V7.24531V7.22176V7.19823V7.17472V7.15125V7.12779V7.10437V7.08097V7.0576V7.03425V7.01094V6.98765V6.96439V6.94116V6.91796V6.89478V6.87164V6.84853V6.82545V6.80239V6.77937V6.75639V6.73343V6.71051V6.68761V6.66476V6.64193V6.61914V6.59638V6.57366V6.55097V6.52831V6.50569V6.48311V6.46056V6.43805V6.41558V6.39314V6.37074V6.34838V6.32606V6.30377V6.28153V6.25932V6.23715V6.21502V6.19293V6.17089V6.14888V6.12691V6.10499V6.08311V6.06127V6.03947V6.01771V5.996V5.97433V5.95271V5.93113V5.90959V5.8881V5.86666V5.84526V5.8239V5.8026V5.78134V5.76012V5.73896V5.71784V5.69677V5.67574V5.65477V5.63384V5.61297V5.59214V5.57137V5.55064V5.52997V5.50934V5.48877V5.46825V5.44778V5.42737V5.40701V5.3867V5.36644V5.34624V5.32609V5.306V5.28596V5.26597V5.24605V5.22617V5.20636V5.1866V5.1669V5.14725V5.12766V5.10813V5.08866V5.06925V5.0499V5.0306V5.01137V4.99219V4.97308V4.95403V4.93503V4.9161V4.89723V4.87843V4.85968V4.841V4.82238V4.80382V4.78533V4.7669V4.74854V4.73024V4.71201V4.69384V4.67574V4.6577V4.63973V4.62183V4.604V4.58623V4.56853V4.5509V4.53334V4.51584V4.49842V4.48106V4.46378V4.44656V4.42942V4.41234V4.39534V4.37841V4.36155V4.34477V4.32805V4.31141V4.29485V4.27835V4.26193V4.24559V4.22932V4.21313V4.19701V4.18096V4.165V4.1491V4.13329V4.11755V4.10189V4.08631V4.07081V4.05538V4.04004V4.02477V4.00958V3.99448V3.97945V3.9645V3.94964V3.93485V3.92015V3.90553V3.89099V3.87653V3.86216V3.84787V3.83367V3.81954V3.80551V3.79155V3.77769V3.7639V3.75021V3.7366V3.72307V3.70963V3.69628V3.68302L20 3.65118C20 3.11341 20 2.62412 19.9651 2.21691C19.9301 1.80862 19.8533 1.36638 19.6232 0.98298C19.0956 0.103697 18.0876 0 17.1066 0ZM8.86192 6.44666C8.83653 6.67553 8.83551 6.94202 8.83551 7.29272L8.83551 11.0152L8.83552 14.7377C8.83552 14.746 8.8354 14.7543 8.83516 14.7626C8.81 15.6352 8.96883 15.9302 9.06322 16.0313C9.1448 16.1187 9.34983 16.2436 9.99971 16.2436C10.635 16.2436 10.8464 16.1202 10.9333 16.028C11.0299 15.9256 11.1921 15.6302 11.1644 14.7654C11.1641 14.7562 11.1639 14.747 11.1639 14.7377V11.0152L11.1639 7.29272C11.1639 6.94202 11.1629 6.67553 11.1375 6.44666C11.1125 6.2211 11.0701 6.10569 11.0332 6.04412L11.0319 6.04203C11.0082 6.0017 10.8814 5.7868 9.99971 5.7868C9.11799 5.7868 8.99126 6.0017 8.96748 6.04203L8.96624 6.04412C8.92936 6.10569 8.88694 6.2211 8.86192 6.44666ZM7.48566 5.15723C7.97193 4.34545 8.87086 4.06091 9.99971 4.06091C11.1286 4.06091 12.0275 4.34545 12.5138 5.15723C12.7303 5.51867 12.8145 5.91088 12.8529 6.25638C12.8899 6.58983 12.8898 6.94781 12.8898 7.26763L12.8898 7.29272L12.8898 11.0152V14.7243C12.9199 15.715 12.7678 16.5984 12.1888 17.2122C11.5975 17.8392 10.7654 17.9695 9.99971 17.9695C9.22656 17.9695 8.39119 17.8407 7.80155 17.209C7.22719 16.5936 7.08273 15.7091 7.10963 14.7256L7.10962 11.0152L7.10962 7.29272L7.10962 7.26763C7.10959 6.9478 7.10956 6.58983 7.14655 6.25638C7.18488 5.91088 7.26915 5.51867 7.48566 5.15723ZM1.75338 11.5427C1.72677 11.8106 1.72589 12.1338 1.72589 12.5663V15.3749C1.72589 15.8627 1.84383 15.9962 1.90101 16.0446C1.99401 16.1233 2.24573 16.2436 2.8934 16.2436C3.5266 16.2436 3.78218 16.1246 3.88025 16.0423C3.94198 15.9905 4.06091 15.8543 4.06091 15.3749V15.3677V15.3605V15.3533V15.3461V15.3389V15.3318V15.3247V15.3175V15.3104V15.3033V15.2963V15.2892V15.2822V15.2751V15.2681V15.2611V15.2541V15.2471V15.2402V15.2332V15.2263V15.2194V15.2124V15.2056V15.1987V15.1918V15.1849V15.1781V15.1713V15.1645V15.1577V15.1509V15.1441V15.1373V15.1306V15.1239V15.1171V15.1104V15.1037V15.0971V15.0904V15.0837V15.0771V15.0705V15.0638V15.0572V15.0507V15.0441V15.0375V15.0309V15.0244V15.0179V15.0114V15.0049V14.9984V14.9919V14.9854V14.979V14.9725V14.9661V14.9597V14.9533V14.9469V14.9405V14.9341V14.9277V14.9214V14.915V14.9087V14.9024V14.8961V14.8898V14.8835V14.8773V14.871V14.8648V14.8585V14.8523V14.8461V14.8399V14.8337V14.8275V14.8214V14.8152V14.809V14.8029V14.7968V14.7907V14.7846V14.7785V14.7724V14.7663V14.7603V14.7542V14.7482V14.7421V14.7361V14.7301V14.7241V14.7181V14.7121V14.7062V14.7002V14.6943V14.6883V14.6824V14.6765V14.6706V14.6647V14.6588V14.6529V14.647V14.6412V14.6353V14.6295V14.6236V14.6178V14.612V14.6062V14.6004V14.5946V14.5888V14.5831V14.5773V14.5715V14.5658V14.5601V14.5543V14.5486V14.5429V14.5372V14.5315V14.5259V14.5202V14.5145V14.5089V14.5032V14.4976V14.492V14.4863V14.4807V14.4751V14.4695V14.4639V14.4584V14.4528V14.4472V14.4417V14.4361V14.4306V14.425V14.4195V14.414V14.4085V14.403V14.3975V14.392V14.3865V14.381V14.3756V14.3701V14.3647V14.3592V14.3538V14.3484V14.3429V14.3375V14.3321V14.3267V14.3213V14.3159V14.3106V14.3052V14.2998V14.2944V14.2891V14.2837V14.2784V14.2731V14.2677V14.2624V14.2571V14.2518V14.2465V14.2412V14.2359V14.2306V14.2253V14.2201V14.2148V14.2095V14.2043V14.199V14.1938V14.1886V14.1833V14.1781V14.1729V14.1677V14.1625V14.1573V14.1521V14.1469V14.1417V14.1365V14.1313V14.1261V14.121V14.1158V14.1107V14.1055V14.1004V14.0952V14.0901V14.0849V14.0798V14.0747V14.0696V14.0645V14.0594V14.0542V14.0491V14.0441V14.039V14.0339V14.0288V14.0237V14.0186V14.0136V14.0085V14.0034V13.9984V13.9933V13.9883V13.9832V13.9782V13.9731V13.9681V13.9631V13.958V13.953V13.948V13.943V13.938V13.933V13.928V13.9229V13.9179V13.9129V13.908V13.903V13.898V13.893V13.888V13.883V13.878V13.8731V13.8681V13.8631V13.8582V13.8532V13.8482V13.8433V13.8383V13.8334V13.8284V13.8235V13.8185V13.8136V13.8087V13.8037V13.7988V13.7938V13.7889V13.784V13.779V13.7741V13.7692V13.7643V13.7593V13.7544V13.7495V13.7446V13.7397V13.7348V13.7299V13.7249V13.72V13.7151V13.7102V13.7053V13.7004V13.6955V13.6906V13.6857V13.6808V13.6759V13.671V13.6661V13.6612V13.6563V13.6514V13.6465V13.6416V13.6367V13.6318V13.6269V13.6221V13.6172V13.6123V13.6074V13.6025V13.5976V13.5927V13.5878V13.5829V13.578V13.5732V13.5683V13.5634V13.5585V13.5536V13.5487V13.5438V13.5389V13.534V13.5291V13.5242V13.5193V13.5145V13.5096V13.5047V13.4998V13.4949V13.49V13.4851V13.4802V13.4753V13.4704V13.4655V13.4606V13.4557V13.4508V13.4459V13.4409V13.436V13.4311V13.4262V13.4213V13.4164V13.4115V13.4065V13.4016V13.3967V13.3918V13.3869V13.3819V13.377V13.3721V13.3671V13.3622V13.3573V13.3523V13.3474V13.3424V13.3375V13.3325V13.3276V13.3226V13.3177V13.3127V13.3078V13.3028V13.2978V13.2929V13.2879V13.2829V13.2779V13.273V13.268V13.263V13.258V13.253V13.248V13.243V13.238V13.233V13.228V13.223V13.218V13.213V13.2079V13.2029V13.1979V13.1929V13.1878V13.1828V13.1777V13.1727V13.1676V13.1626V13.1575V13.1525V13.1474V13.1423V13.1372V13.1322V13.1271V13.122V13.1169V13.1118V13.1067V13.1016V13.0965V13.0914V13.0863V13.0811V13.076V13.0709V13.0657V13.0606V13.0554V13.0503V13.0451V13.04V13.0348V13.0296V13.0244V13.0193V13.0141V13.0089V13.0037V12.9985V12.9933V12.9881V12.9828V12.9776V12.9724V12.9671V12.9619V12.9566V12.9514V12.9461V12.9409V12.9356V12.9303V12.925V12.9197V12.9144V12.9091V12.9038V12.8985V12.8932V12.8878V12.8825V12.8772V12.8718V12.8665V12.8611V12.8557V12.8504V12.845V12.8396V12.8342V12.8288V12.8234V12.818V12.8126V12.8071V12.8017V12.7962V12.7908V12.7853V12.7799V12.7744V12.7689V12.7634V12.7579V12.7524V12.7469V12.7414V12.7359V12.7303V12.7248V12.7192V12.7137V12.7081V12.7025V12.697V12.6914V12.6858V12.6802V12.6746V12.6689V12.6633V12.6577V12.652V12.6464V12.6407V12.635V12.6293V12.6236V12.618V12.6122V12.6065V12.6008V12.5951V12.5893V12.5836V12.5816L4.05389 12.3762V12.3762C4.04266 12.042 4.03389 11.7807 4.00896 11.5502C3.97902 11.2734 3.93393 11.1444 3.89806 11.0815L3.89737 11.08C3.88823 11.0596 3.80034 10.8629 2.8934 10.8629C1.98249 10.8629 1.87642 11.0618 1.86183 11.0891L1.86071 11.0912C1.8257 11.1507 1.77995 11.2754 1.75338 11.5427ZM0.37279 10.2166C0.870513 9.36981 1.80223 9.13705 2.8934 9.13705C3.98656 9.13705 4.90939 9.37119 5.39719 10.2263C5.60764 10.5953 5.68571 11.0029 5.72484 11.3646C5.75734 11.6652 5.76857 12.0053 5.77962 12.3397C5.78178 12.4053 5.78394 12.4707 5.78625 12.5355L5.78655 12.5454L5.7868 12.5663V12.572V12.5778V12.5836V12.5893V12.5951V12.6008V12.6065V12.6122V12.618V12.6236V12.6293V12.635V12.6407V12.6464V12.652V12.6577V12.6633V12.6689V12.6746V12.6802V12.6858V12.6914V12.697V12.7025V12.7081V12.7137V12.7192V12.7248V12.7303V12.7359V12.7414V12.7469V12.7524V12.7579V12.7634V12.7689V12.7744V12.7799V12.7853V12.7908V12.7962V12.8017V12.8071V12.8126V12.818V12.8234V12.8288V12.8342V12.8396V12.845V12.8504V12.8557V12.8611V12.8665V12.8718V12.8772V12.8825V12.8878V12.8932V12.8985V12.9038V12.9091V12.9144V12.9197V12.925V12.9303V12.9356V12.9409V12.9461V12.9514V12.9566V12.9619V12.9671V12.9724V12.9776V12.9828V12.9881V12.9933V12.9985V13.0037V13.0089V13.0141V13.0193V13.0244V13.0296V13.0348V13.04V13.0451V13.0503V13.0554V13.0606V13.0657V13.0709V13.076V13.0811V13.0863V13.0914V13.0965V13.1016V13.1067V13.1118V13.1169V13.122V13.1271V13.1322V13.1372V13.1423V13.1474V13.1525V13.1575V13.1626V13.1676V13.1727V13.1777V13.1828V13.1878V13.1929V13.1979V13.2029V13.2079V13.213V13.218V13.223V13.228V13.233V13.238V13.243V13.248V13.253V13.258V13.263V13.268V13.273V13.2779V13.2829V13.2879V13.2929V13.2978V13.3028V13.3078V13.3127V13.3177V13.3226V13.3276V13.3325V13.3375V13.3424V13.3474V13.3523V13.3573V13.3622V13.3671V13.3721V13.377V13.3819V13.3869V13.3918V13.3967V13.4016V13.4065V13.4115V13.4164V13.4213V13.4262V13.4311V13.436V13.4409V13.4459V13.4508V13.4557V13.4606V13.4655V13.4704V13.4753V13.4802V13.4851V13.49V13.4949V13.4998V13.5047V13.5096V13.5145V13.5193V13.5242V13.5291V13.534V13.5389V13.5438V13.5487V13.5536V13.5585V13.5634V13.5683V13.5732V13.578V13.5829V13.5878V13.5927V13.5976V13.6025V13.6074V13.6123V13.6172V13.6221V13.6269V13.6318V13.6367V13.6416V13.6465V13.6514V13.6563V13.6612V13.6661V13.671V13.6759V13.6808V13.6857V13.6906V13.6955V13.7004V13.7053V13.7102V13.7151V13.72V13.7249V13.7299V13.7348V13.7397V13.7446V13.7495V13.7544V13.7593V13.7643V13.7692V13.7741V13.779V13.784V13.7889V13.7938V13.7988V13.8037V13.8087V13.8136V13.8185V13.8235V13.8284V13.8334V13.8383V13.8433V13.8482V13.8532V13.8582V13.8631V13.8681V13.8731V13.878V13.883V13.888V13.893V13.898V13.903V13.908V13.9129V13.9179V13.9229V13.928V13.933V13.938V13.943V13.948V13.953V13.958V13.9631V13.9681V13.9731V13.9782V13.9832V13.9883V13.9933V13.9984V14.0034V14.0085V14.0136V14.0186V14.0237V14.0288V14.0339V14.039V14.0441V14.0491V14.0542V14.0594V14.0645V14.0696V14.0747V14.0798V14.0849V14.0901V14.0952V14.1004V14.1055V14.1107V14.1158V14.121V14.1261V14.1313V14.1365V14.1417V14.1469V14.1521V14.1573V14.1625V14.1677V14.1729V14.1781V14.1833V14.1886V14.1938V14.199V14.2043V14.2095V14.2148V14.2201V14.2253V14.2306V14.2359V14.2412V14.2465V14.2518V14.2571V14.2624V14.2677V14.2731V14.2784V14.2837V14.2891V14.2944V14.2998V14.3052V14.3106V14.3159V14.3213V14.3267V14.3321V14.3375V14.3429V14.3484V14.3538V14.3592V14.3647V14.3701V14.3756V14.381V14.3865V14.392V14.3975V14.403V14.4085V14.414V14.4195V14.425V14.4306V14.4361V14.4417V14.4472V14.4528V14.4584V14.4639V14.4695V14.4751V14.4807V14.4863V14.492V14.4976V14.5032V14.5089V14.5145V14.5202V14.5259V14.5315V14.5372V14.5429V14.5486V14.5543V14.5601V14.5658V14.5715V14.5773V14.5831V14.5888V14.5946V14.6004V14.6062V14.612V14.6178V14.6236V14.6295V14.6353V14.6412V14.647V14.6529V14.6588V14.6647V14.6706V14.6765V14.6824V14.6883V14.6943V14.7002V14.7062V14.7121V14.7181V14.7241V14.7301V14.7361V14.7421V14.7482V14.7542V14.7603V14.7663V14.7724V14.7785V14.7846V14.7907V14.7968V14.8029V14.809V14.8152V14.8214V14.8275V14.8337V14.8399V14.8461V14.8523V14.8585V14.8648V14.871V14.8773V14.8835V14.8898V14.8961V14.9024V14.9087V14.915V14.9214V14.9277V14.9341V14.9405V14.9469V14.9533V14.9597V14.9661V14.9725V14.979V14.9854V14.9919V14.9984V15.0049V15.0114V15.0179V15.0244V15.0309V15.0375V15.0441V15.0507V15.0572V15.0638V15.0705V15.0771V15.0837V15.0904V15.0971V15.1037V15.1104V15.1171V15.1239V15.1306V15.1373V15.1441V15.1509V15.1577V15.1645V15.1713V15.1781V15.1849V15.1918V15.1987V15.2056V15.2124V15.2194V15.2263V15.2332V15.2402V15.2471V15.2541V15.2611V15.2681V15.2751V15.2822V15.2892V15.2963V15.3033V15.3104V15.3175V15.3247V15.3318V15.3389V15.3461V15.3533V15.3605V15.3677V15.3749C5.7868 16.1293 5.59217 16.8589 4.98951 17.3645C4.42318 17.8396 3.66353 17.9695 2.8934 17.9695C2.11572 17.9695 1.35221 17.841 0.786327 17.3622C0.184609 16.8532 8.6528e-07 16.1208 8.6528e-07 15.3749V12.5663V12.5384V12.5384C-1.80154e-05 12.1408 -3.73134e-05 11.7343 0.0359561 11.3721C0.0728399 11.0009 0.153987 10.5889 0.37279 10.2166Z" fill="#347AE2"/>
</svg>
