<svg width="11" height="11" viewBox="0 0 11 11" fill="none" xmlns="http://www.w3.org/2000/svg">
<path d="M2.83016 0.245252C2.67788 0.397522 2.58461 0.609126 2.58491 0.841512L2.58491 0.943794C2.58491 1.40916 2.96165 1.7859 3.42642 1.7853L8.02448 1.7853L0.246359 9.56342C-0.0821354 9.89192 -0.0821353 10.4251 0.246359 10.7536C0.574854 11.0821 1.10806 11.0821 1.43656 10.7536L9.21468 2.9755V7.57356C9.21468 8.03893 9.59141 8.41567 10.0562 8.41507H10.1585C10.6238 8.41507 11.0006 8.03834 11 7.57356V0.841512C11 0.376145 10.6232 -0.000589278 10.1585 5.60737e-06L3.42642 5.37327e-06C3.19373 5.64994e-06 2.98243 0.0929807 2.83016 0.245252Z" fill="#34C759"/>
</svg>
