<svg width="11" height="11" viewBox="0 0 11 11" fill="none" xmlns="http://www.w3.org/2000/svg">
<path d="M8.16981 10.7547C8.32208 10.6025 8.41536 10.3909 8.41506 10.1585L8.41506 10.0562C8.41506 9.59084 8.03832 9.2141 7.57355 9.2147L2.97549 9.2147L10.7536 1.43658C11.0821 1.10808 11.0821 0.574873 10.7536 0.246379C10.4251 -0.0821159 9.89191 -0.082116 9.56341 0.246378L1.78529 8.0245V3.42644C1.78529 2.96107 1.40855 2.58433 0.943783 2.58493H0.841501C0.376134 2.58493 -0.000601023 2.96166 -5.79776e-06 3.42644V10.1585C-5.79776e-06 10.6239 0.376729 11.0006 0.841501 11L7.57355 11C7.80624 11 8.01754 10.907 8.16981 10.7547Z" fill="#FF3B30"/>
</svg>
