<svg width="18" height="19" viewBox="0 0 18 19" fill="none" xmlns="http://www.w3.org/2000/svg">
<path fill-rule="evenodd" clip-rule="evenodd" d="M5.83492 3.19058C5.90265 2.71769 6.04716 2.45688 6.25189 2.28139C6.59258 1.98937 7.32866 1.72727 8.99198 1.72727C10.6553 1.72727 11.3914 1.98937 11.7321 2.28139C11.9371 2.45715 12.0818 2.71851 12.1494 3.19282C11.2286 3.0882 10.1794 3.04813 8.99198 3.04813C7.80321 3.04813 6.7544 3.08833 5.83492 3.19058ZM4.0732 3.50858C4.11785 2.5682 4.34532 1.64064 5.12779 0.969947C5.97248 0.245927 7.26849 0 8.99198 0C10.7155 0 12.0115 0.245927 12.8562 0.969947C13.6417 1.64324 13.8679 2.5754 13.9113 3.51952C14.8111 3.77046 15.5735 4.14972 16.186 4.72226C17.3859 5.84385 17.8192 7.52831 17.9425 9.74277C17.9694 9.82635 17.984 9.91549 17.984 10.008C17.984 10.1682 17.9808 10.33 17.9725 10.4922C17.9805 10.7998 17.984 11.1166 17.984 11.4424C17.984 13.9164 17.661 15.9464 16.1716 17.2769C14.7217 18.5722 12.3829 19 8.99198 19C7.28013 19 5.85852 18.9166 4.69538 18.6847C3.52792 18.4518 2.56065 18.0578 1.81331 17.3922C0.310151 16.0534 0 13.8916 0 11.0241C0 10.8004 0.00188772 10.5809 0.00608239 10.3659C0.00176724 10.246 0 10.1266 0 10.008C0 9.94003 0.00785669 9.87388 0.0227117 9.81042C0.116379 7.54121 0.530209 5.79871 1.81331 4.65595C2.42355 4.11245 3.18043 3.75003 4.0732 3.50858ZM1.73438 10.3545C1.78919 7.89387 2.16385 6.65676 2.96209 5.94582C3.40013 5.55569 4.0416 5.25516 5.03323 5.05738C6.02919 4.85874 7.31702 4.7754 8.99198 4.7754C10.6677 4.7754 11.9529 4.85888 12.9458 5.06292C13.9323 5.26564 14.5693 5.57539 15.0065 5.98411C15.791 6.71743 16.1699 7.99136 16.2433 10.4744C16.2198 10.8465 16.1638 11.1473 16.065 11.3995C15.9386 11.7218 15.7265 12.0054 15.3181 12.2588C14.4211 12.8153 12.6184 13.2086 8.99812 13.2086C5.37815 13.2086 3.57163 12.8154 2.67113 12.2582C2.26073 12.0043 2.04734 11.7202 1.92028 11.3979C1.81054 11.1195 1.7532 10.7819 1.73438 10.3545ZM16.0866 13.811C15.9025 14.8264 15.5604 15.5068 15.0209 15.9888C14.1 16.8115 12.3747 17.2727 8.99198 17.2727C7.31702 17.2727 6.02919 17.1894 5.03323 16.9908C4.0416 16.793 3.40013 16.4924 2.96209 16.1023C2.43617 15.6339 2.09411 14.9371 1.90627 13.8125C3.27746 14.592 5.50533 14.9358 8.99812 14.9358C12.492 14.9358 14.7181 14.5918 16.0866 13.811ZM6.09626 11.0241C6.09626 10.5471 6.48292 10.1604 6.95989 10.1604H11.0241C11.501 10.1604 11.8877 10.5471 11.8877 11.0241C11.8877 11.501 11.501 11.8877 11.0241 11.8877L6.95989 11.8877C6.48292 11.8877 6.09626 11.501 6.09626 11.0241Z" fill="#7C8DB5"/>
</svg>
