<svg width="7" height="4" viewBox="0 0 7 4" fill="none" xmlns="http://www.w3.org/2000/svg">
<path d="M6.8591 0.570448C6.8591 0.515466 6.83161 0.45361 6.79037 0.412373L6.44673 0.0687303C6.4055 0.0274934 6.34364 2.07995e-06 6.28866 2.07995e-06C6.23367 2.07995e-06 6.17182 0.0274934 6.13058 0.0687303L3.42955 2.76976L0.728522 0.0687303C0.687285 0.0274934 0.625429 2.07995e-06 0.570446 2.07995e-06C0.508591 2.07995e-06 0.453608 0.0274934 0.412371 0.0687303L0.0687285 0.412373C0.0274914 0.45361 4.58801e-08 0.515466 4.58801e-08 0.570448C4.58801e-08 0.625431 0.0274914 0.687287 0.0687285 0.728524L3.27148 3.93127C3.31271 3.97251 3.37457 4 3.42955 4C3.48453 4 3.54639 3.97251 3.58763 3.93127L6.79037 0.728524C6.83161 0.687287 6.8591 0.625431 6.8591 0.570448Z" fill="#828282"/>
</svg>
