<svg width="693" height="103" viewBox="0 0 693 103" fill="none" xmlns="http://www.w3.org/2000/svg">
<path d="M0.546095 101.109C0.0540433 101.36 -0.14153 101.962 0.109271 102.454C0.360071 102.946 0.962272 103.142 1.45432 102.891L0.546095 101.109ZM692.218 1.9755C692.757 1.85348 693.095 1.31791 692.973 0.779279C692.851 0.240644 692.315 -0.0970894 691.776 0.0249301L692.218 1.9755ZM1.45432 102.891C2.71089 102.25 3.68663 101.062 4.50831 99.8262C5.32405 98.5994 6.12286 97.1033 6.87575 95.8446C7.66308 94.5283 8.43959 93.3964 9.30969 92.623C10.1503 91.8757 11.0302 91.5029 12.0858 91.6007L12.2704 89.6092C10.5316 89.4481 9.12501 90.1112 7.98094 91.1282C6.86633 92.119 5.95981 93.4797 5.15937 94.8179C4.32449 96.2137 3.6308 97.5339 2.84289 98.7188C2.06092 99.8948 1.32188 100.713 0.546095 101.109L1.45432 102.891ZM12.0858 91.6007C13.4516 91.7273 14.6567 91.9164 15.8079 92.0805C16.9429 92.2424 18.038 92.3819 19.1008 92.3819C21.3098 92.3819 23.3264 91.7772 25.5459 89.7974L24.2146 88.3049C22.3694 89.9508 20.8295 90.3819 19.1008 90.3819C18.1948 90.3819 17.2257 90.2625 16.0902 90.1006C14.9709 89.941 13.6991 89.7416 12.2704 89.6092L12.0858 91.6007ZM25.5459 89.7974C26.6201 88.8393 27.7731 87.5261 28.9509 86.1481C30.1454 84.7506 31.3782 83.271 32.6603 81.9003C33.9426 80.5294 35.233 79.313 36.5159 78.4437C37.8031 77.5714 39.0038 77.1025 40.1228 77.1025V75.1025C38.4474 75.1025 36.8536 75.7989 35.394 76.788C33.93 77.7801 32.5213 79.1211 31.1996 80.5341C29.8777 81.9474 28.6019 83.4783 27.4306 84.8486C26.2427 86.2384 25.1728 87.4502 24.2146 88.3049L25.5459 89.7974ZM40.1228 77.1025C41.6977 77.1025 43.5471 76.5993 45.3838 75.9725C47.2176 75.3467 49.2238 74.5282 51.0119 73.8682C52.8544 73.1881 54.5012 72.6616 55.8157 72.507C57.1648 72.3483 57.7989 72.6166 58.1031 73.0507L59.741 71.903C58.775 70.5243 57.1226 70.3394 55.582 70.5207C54.0068 70.7059 52.1605 71.3124 50.3194 71.9919C48.4239 72.6916 46.5558 73.4593 44.7378 74.0797C42.9226 74.6992 41.3425 75.1025 40.1228 75.1025V77.1025ZM58.1031 73.0507C58.8529 74.1209 60.2262 75.242 61.8596 76.2889C63.5191 77.3524 65.5408 78.3982 67.6827 79.2914C71.915 81.0565 76.83 82.3144 80.4166 81.7519L80.1067 79.7761C77.0882 80.2495 72.6036 79.1767 68.4525 77.4455C66.4026 76.5907 64.4867 75.5971 62.9388 74.605C61.365 73.5963 60.2614 72.6457 59.741 71.903L58.1031 73.0507ZM80.4166 81.7519C83.9577 81.1966 84.7429 79.6911 85.7315 79.0956C86.8082 78.447 89.0223 77.8713 96.9303 78.6515L97.1267 76.6611C89.284 75.8874 86.4172 76.3477 84.6995 77.3824C82.8936 78.4702 83.1707 79.2955 80.1067 79.7761L80.4166 81.7519ZM96.9303 78.6515C100.854 79.0385 102.906 79.4201 104.06 79.7573C104.626 79.9228 104.957 80.0723 105.177 80.1954C105.415 80.3281 105.529 80.427 105.788 80.6099C106.048 80.7932 106.351 80.9791 106.812 81.1367C107.251 81.2867 107.802 81.4007 108.557 81.49C110.059 81.6676 112.525 81.764 116.844 81.764V79.764C112.525 79.764 110.164 79.6661 108.792 79.5038C108.11 79.4232 107.713 79.3309 107.459 79.2441C107.227 79.165 107.094 79.0838 106.941 78.9758C106.787 78.8674 106.513 78.6506 106.153 78.4495C105.776 78.2388 105.3 78.0362 104.621 77.8375C103.282 77.4463 101.078 77.051 97.1267 76.6611L96.9303 78.6515ZM116.844 81.764C125.2 81.764 130.72 84.8801 135.268 87.5205C137.514 88.8245 139.635 90.0835 141.717 90.6837C143.879 91.3069 146.037 91.2361 148.335 89.9186L147.34 88.1837C145.572 89.197 143.984 89.2557 142.271 88.762C140.479 88.2454 138.598 87.1413 136.272 85.7908C131.675 83.1222 125.763 79.764 116.844 79.764V81.764ZM148.335 89.9186C150.734 88.5426 151.809 86.0941 152.379 83.4511C152.943 80.8356 153.065 77.7276 153.342 74.9052C153.626 72.0012 154.076 69.332 155.217 67.2426C156.32 65.2229 158.098 63.6923 161.233 63.1006L160.862 61.1353C157.137 61.8384 154.851 63.7392 153.461 66.2839C152.11 68.7589 151.638 71.7872 151.351 74.71C151.056 77.7145 150.956 80.5629 150.424 83.0297C149.898 85.4691 149.005 87.2289 147.34 88.1837L148.335 89.9186ZM161.233 63.1006C168.018 61.8197 170.586 62.115 173.181 63.1734C174.576 63.742 175.921 64.5025 177.975 65.4948C179.985 66.4658 182.535 67.5842 186.14 68.7656L186.763 66.865C183.255 65.7157 180.788 64.6328 178.845 63.6939C176.945 62.7762 175.4 61.9182 173.937 61.3214C170.816 60.049 167.795 59.8264 160.862 61.1353L161.233 63.1006ZM186.14 68.7656C190.068 70.0527 194.021 69.017 197.762 66.9597C201.498 64.905 205.164 61.7552 208.597 58.5789C212.072 55.365 215.28 52.1545 218.227 49.8055C219.692 48.6375 221.043 47.7253 222.273 47.1522C223.507 46.5777 224.539 46.382 225.407 46.5295L225.742 44.5577C224.323 44.3168 222.863 44.6714 221.429 45.3392C219.992 46.0083 218.5 47.0303 216.98 48.2416C213.957 50.6513 210.624 53.9798 207.239 57.1108C203.814 60.2793 200.302 63.2802 196.798 65.2072C193.299 67.1317 189.948 67.9087 186.763 66.865L186.14 68.7656ZM225.407 46.5295C227.546 46.893 229.248 47.65 230.721 48.4595C231.467 48.8692 232.138 49.2827 232.806 49.6803C233.459 50.0694 234.112 50.4457 234.761 50.7317C236.098 51.3212 237.516 51.5668 239.082 50.8154C240.548 50.1121 242.006 48.5945 243.68 46.1009L242.019 44.9863C240.39 47.4133 239.18 48.5502 238.217 49.0122C237.354 49.4262 236.58 49.3481 235.568 48.9016C235.042 48.6697 234.48 48.35 233.829 47.9622C233.193 47.5829 232.471 47.1386 231.684 46.7066C230.094 45.8328 228.175 44.9712 225.742 44.5577L225.407 46.5295ZM243.68 46.1009C245.405 43.5303 246.677 40.4205 247.75 37.2448C248.812 34.1027 249.732 30.7191 250.662 27.7819C251.612 24.7776 252.596 22.1542 253.836 20.228C255.065 18.3189 256.458 17.2237 258.211 17.0135L257.973 15.0278C255.407 15.3355 253.561 16.9596 252.154 19.1455C250.758 21.3143 249.71 24.1617 248.755 27.1785C247.779 30.2625 246.921 33.4503 245.855 36.6045C244.801 39.7251 243.596 42.6365 242.019 44.9863L243.68 46.1009ZM258.211 17.0135C262.44 16.5063 268.814 16.5065 274.481 17.5857C277.314 18.1252 279.921 18.9254 281.983 20.0334C284.048 21.1437 285.478 22.5137 286.122 24.1551L287.984 23.4246C287.103 21.1814 285.23 19.5085 282.93 18.2718C280.625 17.0329 277.802 16.1821 274.855 15.621C268.963 14.4989 262.381 14.4991 257.973 15.0278L258.211 17.0135ZM286.122 24.1551C286.857 26.0299 287.352 27.947 287.821 29.8335C288.283 31.6955 288.727 33.5609 289.357 35.2165C289.991 36.8836 290.842 38.4216 292.173 39.6122C293.517 40.8144 295.275 41.5957 297.603 41.8749L297.842 39.8892C295.851 39.6505 294.497 39.0075 293.507 38.1216C292.504 37.2243 291.799 36.0107 291.226 34.5054C290.649 32.9885 290.236 31.2608 289.762 29.3514C289.294 27.4666 288.772 25.4344 287.984 23.4246L286.122 24.1551ZM297.603 41.8749C302.239 42.4308 306.332 40.4716 310.546 38.7661C314.823 37.0348 319.454 35.4321 325.546 36.1773L325.789 34.1921C319.178 33.3834 314.156 35.1474 309.795 36.9122C305.372 38.7028 301.844 40.3692 297.842 39.8892L297.603 41.8749ZM325.546 36.1773C328.668 36.5592 330.594 37.0926 331.844 37.6451C333.063 38.1836 333.664 38.7503 334.125 39.2757C334.553 39.7632 335.087 40.5454 335.934 41.0634C336.836 41.6149 338.035 41.8821 339.894 41.8821V39.8821C338.196 39.8821 337.426 39.6313 336.978 39.3573C336.475 39.0499 336.28 38.6991 335.628 37.9564C335.009 37.2517 334.181 36.4912 332.653 35.8158C331.156 35.1543 329.017 34.587 325.789 34.1921L325.546 36.1773ZM339.894 41.8821C343.927 41.8821 347 38.9502 349.372 36.5324C350.617 35.2637 351.659 34.1402 352.653 33.3688C353.658 32.5887 354.343 32.3888 354.889 32.5281L355.383 30.59C353.897 30.2114 352.549 30.9178 351.427 31.7887C350.294 32.6682 349.113 33.9402 347.944 35.1318C345.489 37.6344 342.973 39.8821 339.894 39.8821V41.8821ZM354.889 32.5281C356.704 32.9906 358.591 34.1714 360.292 35.7814C361.986 37.3851 363.438 39.3607 364.4 41.3224L366.196 40.4417C365.126 38.2598 363.529 36.0919 361.667 34.3289C359.811 32.5723 357.633 31.1634 355.383 30.59L354.889 32.5281ZM364.4 41.3224C364.877 42.2943 365.272 43.4041 365.669 44.5711C366.059 45.7154 366.456 46.9288 366.919 48.0098C367.822 50.1131 369.202 52.241 371.903 52.241V50.241C370.539 50.241 369.633 49.2612 368.757 47.221C368.332 46.2301 367.967 45.1128 367.562 43.9263C367.166 42.7626 366.735 41.5416 366.196 40.4417L364.4 41.3224ZM371.903 52.241C372.337 52.241 372.81 52.5355 373.358 53.5463C373.892 54.5315 374.305 55.8493 374.763 57.2492C375.194 58.5662 375.682 60.0233 376.376 60.9982C376.733 61.501 377.218 61.9822 377.881 62.2028C378.576 62.4341 379.293 62.3225 379.978 61.9729L379.07 60.191C378.74 60.3594 378.583 60.3287 378.512 60.3051C378.409 60.2708 378.235 60.1612 378.005 59.8385C377.524 59.1625 377.123 58.0299 376.664 56.6276C376.233 55.3083 375.758 53.7774 375.116 52.5937C374.489 51.4356 373.502 50.241 371.903 50.241V52.241ZM379.978 61.9729C381.877 61.0051 382.646 61.2155 383.755 60.9548C384.376 60.8085 384.925 60.5075 385.404 59.8513C385.83 59.2699 386.187 58.4277 386.572 57.2492L384.671 56.6276C384.294 57.7799 384.016 58.362 383.79 58.6708C383.619 58.9049 383.5 58.96 383.297 59.0079C382.753 59.1357 381.236 59.0871 379.07 60.191L379.978 61.9729ZM386.572 57.2492C386.959 56.065 387.379 54.5822 387.827 53.061C388.279 51.5259 388.764 49.9324 389.292 48.4741C389.824 47.0069 390.383 45.7269 390.969 44.7983C391.588 43.8164 392.083 43.4746 392.394 43.4218L392.059 41.45C390.846 41.6562 389.944 42.674 389.277 43.7315C388.576 44.8424 387.96 46.2816 387.412 47.7925C386.861 49.3125 386.362 50.9561 385.908 52.4963C385.451 54.0504 385.046 55.4811 384.671 56.6276L386.572 57.2492ZM392.394 43.4218C393.197 43.2853 393.737 43.1477 394.15 43.0383C394.578 42.9249 394.775 42.8706 394.995 42.8481C395.421 42.8047 396.002 42.8761 398.077 43.4049L398.571 41.4669C396.581 40.9598 395.638 40.7722 394.793 40.8584C394.378 40.9006 394.003 41.0081 393.637 41.1051C393.256 41.2061 392.78 41.3275 392.059 41.45L392.394 43.4218ZM398.077 43.4049C400.151 43.9336 402.034 44.1252 403.52 43.6468C404.29 43.3991 404.956 42.9706 405.465 42.3298C405.969 41.696 406.276 40.9095 406.424 40.0075L404.45 39.6848C404.343 40.3367 404.142 40.7803 403.9 41.0853C403.663 41.3833 403.345 41.6022 402.907 41.743C401.98 42.0415 400.561 41.9741 398.571 41.4669L398.077 43.4049ZM406.424 40.0075C406.552 39.2219 406.627 38.4625 406.698 37.9418C406.776 37.3646 406.856 37.0213 406.97 36.7904C407.057 36.6127 407.165 36.4954 407.397 36.3974C407.678 36.2791 408.157 36.1847 408.993 36.1847V34.1847C408.051 34.1847 407.261 34.2844 406.62 34.5546C405.932 34.845 405.468 35.3105 405.174 35.9097C404.906 36.4557 404.796 37.0835 404.716 37.6718C404.628 38.3164 404.575 38.9166 404.45 39.6848L406.424 40.0075ZM408.993 36.1847C410.531 36.1847 411.628 36.6163 413.083 37.4197C414.537 38.2226 416.408 39.4399 419.243 40.7535L420.084 38.9389C417.33 37.6627 415.644 36.5493 414.05 35.6689C412.456 34.7889 411.012 34.1847 408.993 34.1847V36.1847ZM419.243 40.7535C420.545 41.3569 422.846 42.8836 425.764 44.8942C428.642 46.8767 432.057 49.2843 435.498 51.5574C438.936 53.8294 442.441 55.995 445.518 57.4971C447.056 58.248 448.514 58.8469 449.823 59.2075C451.113 59.5626 452.36 59.7163 453.426 59.4657L452.968 57.5188C452.382 57.6566 451.518 57.5999 450.354 57.2793C449.21 56.9641 447.874 56.4219 446.395 55.6999C443.438 54.2562 440.021 52.1487 436.6 49.8887C433.181 47.6298 429.801 45.2464 426.899 43.2472C424.038 41.2761 421.576 39.6304 420.084 38.9389L419.243 40.7535ZM453.426 59.4657C455.179 59.0532 456.81 58.3709 458.414 57.6065C459.216 57.2246 460.023 56.8161 460.835 56.4089C461.651 55.9996 462.476 55.5889 463.334 55.1913C466.745 53.6107 470.663 52.241 476.061 52.241V50.241C470.28 50.241 466.069 51.72 462.494 53.3766C461.605 53.7883 460.756 54.2111 459.938 54.6212C459.116 55.0334 458.332 55.4301 457.554 55.8009C455.999 56.5418 454.517 57.1543 452.968 57.5188L453.426 59.4657ZM476.061 52.241C481.458 52.241 484.362 53.4775 487.024 54.4467C488.369 54.9367 489.713 55.3816 491.265 55.5149C492.831 55.6494 494.552 55.464 496.688 54.7835L496.081 52.8779C494.152 53.4923 492.697 53.6306 491.437 53.5223C490.163 53.4129 489.029 53.0485 487.708 52.5674C485.035 51.5942 481.841 50.241 476.061 50.241V52.241ZM496.688 54.7835C500.887 53.4458 502.768 52.0827 504.972 50.7345C507.114 49.4241 509.693 48.0385 515.44 46.51L514.926 44.5772C508.988 46.1564 506.232 47.6196 503.928 49.0283C501.687 50.3994 500.011 51.6259 496.081 52.8779L496.688 54.7835ZM515.44 46.51C521.261 44.9621 527.788 43.5584 533.656 43.2402C539.578 42.9191 544.565 43.7211 547.556 46.3008L548.862 44.7864C545.248 41.6687 539.565 40.9169 533.547 41.2432C527.475 41.5724 520.792 43.0174 514.926 44.5772L515.44 46.51ZM547.556 46.3008C551.04 49.306 557.959 52.2027 564.703 53.6433C568.095 54.3676 571.508 54.739 574.493 54.5536C577.448 54.37 580.142 53.6301 581.917 51.9716L580.552 50.5104C579.278 51.7005 577.145 52.385 574.369 52.5575C571.622 52.7282 568.399 52.3874 565.121 51.6874C558.529 50.2793 551.983 47.4786 548.862 44.7864L547.556 46.3008ZM581.917 51.9716C584.919 49.167 587.565 47.4873 589.865 46.9011C592.088 46.3346 594.031 46.7735 595.812 48.3616L597.143 46.8691C594.859 44.8317 592.229 44.2347 589.371 44.963C586.59 45.6717 583.647 47.6176 580.552 50.5104L581.917 51.9716ZM595.812 48.3616C597.451 49.8241 596.979 51.1089 597.131 53.129C597.206 54.124 597.49 55.1986 598.543 56.0968C599.529 56.9375 601.08 57.5262 603.423 57.9243L603.758 55.9525C601.528 55.5737 600.412 55.0617 599.841 54.5752C599.338 54.1461 599.178 53.6669 599.126 52.9786C599.024 51.6321 599.568 49.0322 597.143 46.8691L595.812 48.3616ZM603.423 57.9243C608.047 58.7099 611.68 58.7438 614.525 57.7533C617.441 56.7385 619.404 54.6951 620.762 51.6482L618.936 50.8338C617.754 53.4842 616.16 55.0665 613.868 55.8645C611.506 56.6868 608.279 56.7207 603.758 55.9525L603.423 57.9243ZM620.762 51.6482C622.057 48.7449 623.268 45.921 624.875 43.9799C625.663 43.0279 626.503 42.3452 627.436 41.9727C628.355 41.606 629.439 41.5092 630.78 41.8511L631.274 39.913C629.567 39.478 628.047 39.5755 626.695 40.1152C625.357 40.6491 624.261 41.585 623.334 42.7047C621.511 44.9073 620.182 48.0397 618.936 50.8338L620.762 51.6482ZM630.78 41.8511C631.789 42.1082 632.858 41.9726 633.905 41.6316C634.955 41.2895 636.05 40.719 637.152 40.0186C639.355 38.6195 641.725 36.6125 644.014 34.5713C646.331 32.5045 648.546 30.4199 650.532 28.7568C651.519 27.9301 652.42 27.2329 653.217 26.7154C654.03 26.1871 654.658 25.8971 655.107 25.8056L654.707 23.8459C653.886 24.0133 653.005 24.4679 652.127 25.0382C651.233 25.6193 650.261 26.3748 649.248 27.2234C647.233 28.9107 644.938 31.0668 642.682 33.0788C640.398 35.1164 638.133 37.0264 636.08 38.3304C635.055 38.9815 634.117 39.4589 633.285 39.73C632.451 40.002 631.789 40.0444 631.274 39.913L630.78 41.8511ZM655.107 25.8056C657.783 25.26 662.59 23.3961 666.73 20.8902C668.805 19.6341 670.764 18.1864 672.217 16.6196C673.654 15.069 674.706 13.2808 674.706 11.3591H672.706C672.706 12.5452 672.044 13.8646 670.75 15.2599C669.472 16.6389 667.683 17.9752 665.694 19.1792C661.705 21.5939 657.112 23.3556 654.707 23.8459L655.107 25.8056ZM674.706 11.3591C674.706 10.541 675.214 9.60925 676.37 8.58587C677.507 7.57937 679.125 6.61695 680.992 5.73762C684.716 3.98273 689.214 2.65603 692.218 1.9755L691.776 0.0249301C688.683 0.725592 684.036 2.09221 680.139 3.92841C678.195 4.84463 676.384 5.9022 675.044 7.08834C673.723 8.2576 672.706 9.69116 672.706 11.3591H674.706Z" fill="#347AE2"/>
</svg>
