<svg width="18" height="20" viewBox="0 0 18 20" fill="none" xmlns="http://www.w3.org/2000/svg">
<path fill-rule="evenodd" clip-rule="evenodd" d="M3.75634 6.95431C3.75634 5.61534 4.20364 4.30458 5.06122 3.3398C5.90467 2.39092 7.18848 1.72589 8.98477 1.72589C10.7811 1.72589 12.0649 2.39092 12.9083 3.3398C13.7659 4.30457 14.2132 5.61534 14.2132 6.95431C14.2132 8.23308 14.8493 9.18599 15.3342 9.9124L15.3733 9.97105C15.8995 10.7603 16.2436 11.3135 16.2436 12.0304C16.2436 13.0195 15.5394 13.815 14.0776 14.4023C12.6386 14.9805 10.7294 15.2284 8.98477 15.2284C7.24013 15.2284 5.33096 14.9805 3.89194 14.4023C2.43018 13.815 1.72589 13.0195 1.72589 12.0304C1.72589 11.3264 2.05504 10.8423 2.58691 10.0766C3.0982 9.34049 3.75634 8.3836 3.75634 6.95431ZM8.98477 0C6.72015 0 4.95827 0.857813 3.77127 2.19319C2.59839 3.51268 2.03046 5.2476 2.03046 6.95431C2.03046 7.80053 1.67337 8.36648 1.16943 9.09198L1.09863 9.19357C0.621887 9.8766 0 10.7676 0 12.0304C0 14.087 1.55177 15.322 3.2485 16.0038C4.96798 16.6946 7.11971 16.9543 8.98477 16.9543C10.8498 16.9543 13.0016 16.6946 14.721 16.0038C16.4178 15.322 17.9695 14.087 17.9695 12.0304C17.9695 10.7517 17.3334 9.79877 16.8485 9.07235L16.8094 9.0137C16.2832 8.22444 15.9391 7.67128 15.9391 6.95431C15.9391 5.2476 15.3711 3.51268 14.1983 2.19319C13.0113 0.857813 11.2494 0 8.98477 0ZM6.47564 17.4038C6.86906 17.1415 7.39953 17.2449 7.66603 17.6338L7.67245 17.6425C7.68166 17.6546 7.69962 17.6773 7.72619 17.7071C7.77991 17.7676 7.86492 17.853 7.97969 17.9391C8.20663 18.1093 8.53706 18.2741 8.98477 18.2741C9.43247 18.2741 9.7629 18.1093 9.98984 17.9391C10.1046 17.853 10.1896 17.7676 10.2433 17.7071C10.2699 17.6773 10.2879 17.6546 10.2971 17.6425L10.3035 17.6338C10.57 17.2449 11.1005 17.1415 11.4939 17.4038C11.8904 17.6682 11.9976 18.2039 11.7332 18.6005L11.0152 18.1218C11.7332 18.6005 11.733 18.6008 11.7328 18.6012L11.7323 18.6018L11.7314 18.6033L11.7292 18.6064L11.7241 18.6139L11.7105 18.6333C11.7 18.6481 11.6865 18.6667 11.6699 18.6884C11.6368 18.7318 11.5913 18.7885 11.5333 18.8538C11.4178 18.9837 11.249 19.1521 11.0254 19.3198C10.5755 19.6572 9.8907 20 8.98477 20C8.07884 20 7.39403 19.6572 6.94416 19.3198C6.72052 19.1521 6.55173 18.9837 6.43624 18.8538C6.3782 18.7885 6.33271 18.7318 6.29962 18.6884C6.28305 18.6667 6.26951 18.6481 6.25898 18.6333L6.24541 18.6139L6.2403 18.6064L6.23816 18.6033L6.2372 18.6018L6.23674 18.6012C6.23652 18.6008 6.2363 18.6005 6.95431 18.1218L6.2363 18.6005C5.97193 18.2039 6.07909 17.6682 6.47564 17.4038Z" fill="black"/>
</svg>
