<svg width="20" height="20" viewBox="0 0 20 20" fill="none" xmlns="http://www.w3.org/2000/svg">
<path fill-rule="evenodd" clip-rule="evenodd" d="M1.72589 7.96954C1.72589 4.52126 4.52126 1.72589 7.96954 1.72589C11.4178 1.72589 14.2132 4.52126 14.2132 7.96954C14.2132 11.4178 11.4178 14.2132 7.96954 14.2132C4.52126 14.2132 1.72589 11.4178 1.72589 7.96954ZM7.96954 0C3.56808 0 0 3.56808 0 7.96954C0 12.371 3.56808 15.9391 7.96954 15.9391C9.8594 15.9391 11.5956 15.2813 12.9617 14.1821L18.5269 19.7472C18.8639 20.0842 19.4102 20.0842 19.7472 19.7472C20.0842 19.4102 20.0842 18.8639 19.7472 18.5269L14.1821 12.9617C15.2813 11.5956 15.9391 9.8594 15.9391 7.96954C15.9391 3.56808 12.371 0 7.96954 0Z" fill="black"/>
</svg>
