<svg width="693" height="104" viewBox="0 0 693 104" fill="none" xmlns="http://www.w3.org/2000/svg">
<path d="M1.07863 79.5156C0.528057 79.4722 0.0465478 79.8834 0.00315273 80.4339C-0.0402423 80.9845 0.37091 81.466 0.921487 81.5094L1.07863 79.5156ZM22.2928 88.8238L22.9603 88.0792L22.2928 88.8238ZM52.204 99.2129L51.2145 99.068L52.204 99.2129ZM61.8364 94.5378L62.4554 93.7524C62.4414 93.7413 62.427 93.7306 62.4123 93.7203L61.8364 94.5378ZM684.395 42.0729L683.557 42.6182L684.395 42.0729ZM691.585 49.7359C692.088 49.9647 692.681 49.7428 692.91 49.2402C693.139 48.7376 692.917 48.1446 692.414 47.9157L691.585 49.7359ZM0.921487 81.5094C3.03878 81.6763 6.66085 82.2838 10.5473 83.566C14.4396 84.85 18.5219 86.7861 21.6252 89.5684L22.9603 88.0792C19.5744 85.0436 15.2073 82.9972 11.1739 81.6666C7.13477 80.3342 3.35508 79.695 1.07863 79.5156L0.921487 81.5094ZM21.6252 89.5684C25.7321 93.2503 32.9084 98.5061 39.29 101.544C42.4552 103.051 45.5703 104.085 48.0656 103.994C49.3367 103.948 50.5268 103.608 51.4638 102.808C52.4079 102.003 52.9776 100.832 53.1935 99.3577L51.2145 99.068C51.0502 100.191 50.6535 100.871 50.1657 101.287C49.6709 101.709 48.9639 101.961 47.9932 101.996C46.0051 102.068 43.2583 101.218 40.1497 99.7385C33.9838 96.8029 26.965 91.6696 22.9603 88.0792L21.6252 89.5684ZM53.1935 99.3577C53.4821 97.3861 54.0233 96.1155 54.6357 95.3167C55.2329 94.5378 55.9286 94.165 56.6509 94.0264C58.1785 93.7334 60.0001 94.4674 61.2605 95.3553L62.4123 93.7203C60.9689 92.7035 58.5827 91.6194 56.2741 92.0623C55.0785 92.2916 53.949 92.9253 53.0486 94.0998C52.1633 95.2543 51.5343 96.884 51.2145 99.068L53.1935 99.3577ZM61.2174 95.3232C62.3636 96.2266 64.2228 97.4553 66.0951 98.195C67.0294 98.5641 68.0279 98.836 68.9756 98.8492C69.9377 98.8626 70.9236 98.6061 71.6775 97.8335L70.2462 96.4366C69.9863 96.703 69.5991 96.8577 69.0033 96.8494C68.3931 96.8409 67.6489 96.6584 66.8299 96.3349C65.1957 95.6893 63.5061 94.5805 62.4554 93.7524L61.2174 95.3232ZM71.6775 97.8335C72.1282 97.3718 72.529 96.6252 72.8964 95.8206C73.2796 94.9813 73.6841 93.9445 74.1093 92.8002C74.9691 90.4867 75.9197 87.721 77.0228 84.9761C78.1248 82.234 79.3445 79.6038 80.7005 77.6089C82.085 75.5722 83.459 74.4252 84.7949 74.2296L84.5052 72.2507C82.2924 72.5746 80.4978 74.3495 79.0464 76.4846C77.5666 78.6616 76.2831 81.4532 75.1671 84.2303C74.0522 87.0046 73.07 89.8555 72.2346 92.1035C71.8123 93.2399 71.4285 94.2201 71.077 94.9899C70.7097 95.7943 70.4293 96.249 70.2462 96.4366L71.6775 97.8335ZM84.7949 74.2296C86.4004 73.9946 87.1208 74.3201 87.5052 74.6822C87.9492 75.1006 88.2046 75.7931 88.4249 76.8254C88.6208 77.7429 88.7967 79.028 89.2142 80.0474C89.6739 81.1698 90.4918 82.1756 92.0326 82.5265L92.4766 80.5764C91.7361 80.4078 91.3499 79.9851 91.065 79.2894C90.7379 78.4907 90.6286 77.5681 90.3809 76.4078C90.1577 75.3623 89.811 74.1069 88.8767 73.2266C87.8827 72.29 86.4485 71.9662 84.5052 72.2507L84.7949 74.2296ZM92.0326 82.5265C94.8664 83.1717 96.8767 81.4938 98.4376 80.0864C99.2673 79.3382 99.9725 78.6592 100.732 78.1404C101.469 77.6371 102.16 77.3569 102.901 77.3569V75.3569C101.614 75.3569 100.531 75.8559 99.604 76.4889C98.7001 77.1063 97.8527 77.9208 97.0983 78.6011C95.4906 80.0507 94.2055 80.97 92.4766 80.5764L92.0326 82.5265ZM102.901 77.3569C103.175 77.3569 103.534 77.4551 104.005 77.7184C104.472 77.9803 104.991 78.3719 105.569 78.8783C106.748 79.9119 107.979 81.2409 109.426 82.6559C110.832 84.0307 112.393 85.4342 114.089 86.4245C115.794 87.4203 117.704 88.0387 119.776 87.7354L119.486 85.7565C118.009 85.9727 116.561 85.5521 115.097 84.6974C113.624 83.8371 112.207 82.5785 110.825 81.2261C109.483 79.914 108.116 78.4509 106.887 77.3742C106.261 76.8255 105.623 76.3324 104.982 75.9733C104.343 75.6158 103.641 75.3569 102.901 75.3569V77.3569ZM119.776 87.7354C123.275 87.2233 126.331 87.2299 129.33 87.0295C132.284 86.8321 135.111 86.4321 137.831 85.0387L136.919 83.2587C134.569 84.4625 132.073 84.8417 129.197 85.0339C126.365 85.2231 123.085 85.2298 119.486 85.7565L119.776 87.7354ZM137.831 85.0387C140.745 83.5456 141.613 81.2548 142.147 79.1335C142.422 78.0405 142.584 77.131 142.888 76.2059C143.176 75.3268 143.556 74.5717 144.174 73.9386L142.743 72.5417C141.84 73.467 141.333 74.5299 140.987 75.5825C140.657 76.5892 140.439 77.725 140.207 78.645C139.728 80.5494 139.074 82.1545 136.919 83.2587L137.831 85.0387ZM144.174 73.9386C144.882 73.2136 145.721 72.5353 146.625 71.8425C147.51 71.1643 148.482 70.4543 149.359 69.7223C151.108 68.2625 152.767 66.4899 153.07 64.0111L151.084 63.7689C150.88 65.4457 149.751 66.7898 148.077 68.187C147.243 68.8834 146.346 69.537 145.409 70.2549C144.491 70.9581 143.556 71.7084 142.743 72.5417L144.174 73.9386ZM153.07 64.0111C153.319 61.968 153.941 58.2863 155.108 55.0763C155.693 53.4685 156.394 52.0366 157.213 50.9934C158.032 49.9495 158.888 49.3929 159.784 49.3011L159.58 47.3115C157.94 47.4795 156.642 48.4813 155.639 49.7586C154.636 51.0368 153.848 52.6892 153.228 54.3929C151.988 57.8059 151.342 61.6563 151.084 63.7689L153.07 64.0111ZM159.784 49.3011C161.992 49.0748 162.874 49.7034 164.577 50.509C166.373 51.3581 168.694 52.1714 173.427 51.902L173.313 49.9052C168.921 50.1553 166.932 49.4102 165.432 48.701C163.84 47.9482 162.441 47.0184 159.58 47.3115L159.784 49.3011ZM173.427 51.902C175.723 51.7713 177.516 51.6073 178.931 51.4946C180.367 51.3802 181.369 51.323 182.169 51.3815C182.935 51.4376 183.47 51.5981 183.971 51.9034C184.497 52.2242 185.047 52.7422 185.784 53.6231L187.318 52.3398C186.534 51.4026 185.817 50.6869 185.012 50.196C184.182 49.6896 183.323 49.4606 182.315 49.3868C181.34 49.3155 180.188 49.3881 178.772 49.5009C177.335 49.6155 175.579 49.7762 173.313 49.9052L173.427 51.902ZM185.784 53.6231C186.476 54.4499 187.101 55.5099 187.748 56.698C188.378 57.8551 189.039 59.1566 189.754 60.3222C191.169 62.6284 193.076 64.89 196.183 64.89V62.89C194.221 62.89 192.833 61.5153 191.459 59.2764C190.78 58.1693 190.174 56.9709 189.505 55.7417C188.852 54.5437 188.147 53.331 187.318 52.3398L185.784 53.6231ZM196.183 64.89C197.327 64.89 197.816 65.1254 198.065 65.3353C198.334 65.5627 198.501 65.903 198.723 66.5508C198.924 67.1421 199.173 68.0022 199.69 68.8113C200.233 69.661 201.049 70.4367 202.36 71.0335L203.188 69.2134C202.218 68.7712 201.703 68.2483 201.375 67.7344C201.021 67.18 200.857 66.6116 200.615 65.9043C200.393 65.2533 200.085 64.4249 199.356 63.8082C198.606 63.1739 197.575 62.89 196.183 62.89V64.89ZM202.36 71.0335C204.736 72.1157 206.521 72.4782 208.436 71.9288C210.226 71.4153 212.033 70.1152 214.51 68.3387L213.345 66.7136C210.752 68.5732 209.264 69.6107 207.885 70.0063C206.631 70.3659 205.375 70.209 203.188 69.2134L202.36 71.0335ZM214.51 68.3387C215.284 67.7838 216.059 66.867 216.829 65.792C217.612 64.6982 218.447 63.3557 219.326 61.8766C221.101 58.8886 223.05 55.3545 225.23 51.8908C227.404 48.4367 229.745 45.1579 232.232 42.7509C234.731 40.3321 237.249 38.9172 239.783 38.9172V36.9172C236.486 36.9172 233.491 38.749 230.841 41.3137C228.179 43.8902 225.736 47.3319 223.537 50.8255C221.345 54.3095 219.332 57.9503 217.607 60.8549C216.735 62.3221 215.934 63.6053 215.202 64.6278C214.457 65.6692 213.838 66.3594 213.345 66.7136L214.51 68.3387ZM239.783 38.9172C245.783 38.9172 248.319 37.8334 250.626 37.0455C251.73 36.6682 252.744 36.3745 254.107 36.2854C255.482 36.1954 257.261 36.3117 259.87 36.8209L260.253 34.8579C257.539 34.3283 255.579 34.1848 253.976 34.2896C252.36 34.3953 251.156 34.7509 249.979 35.1528C247.723 35.9233 245.443 36.9172 239.783 36.9172V38.9172ZM259.87 36.8209C262.545 37.343 264.598 37.6464 266.209 37.723C267.816 37.7994 269.068 37.6553 270.092 37.2115C271.144 36.7552 271.848 36.0293 272.439 35.1588C272.999 34.3331 273.52 33.2707 274.122 32.1604L272.364 31.2071C271.698 32.4344 271.269 33.32 270.783 34.0364C270.328 34.708 269.891 35.1185 269.296 35.3765C268.672 35.6469 267.77 35.7949 266.304 35.7253C264.841 35.6557 262.901 35.3748 260.253 34.8579L259.87 36.8209ZM274.122 32.1604C276.59 27.6085 280.889 23.3336 286.424 23.3336V21.3336C279.792 21.3336 274.965 26.4089 272.364 31.2071L274.122 32.1604ZM286.424 23.3336C289.359 23.3336 292.898 24.0864 296.594 24.6843C300.185 25.2654 303.943 25.7014 306.972 24.8551L306.434 22.9289C303.886 23.6409 300.546 23.2978 296.913 22.71C293.385 22.1392 289.572 21.3336 286.424 21.3336V23.3336ZM306.972 24.8551C308.567 24.4092 310.091 23.3944 311.523 22.2339C312.955 21.0735 314.411 19.6674 315.805 18.3978C317.226 17.103 318.605 15.9289 319.978 15.1078C321.347 14.2884 322.623 13.8747 323.855 13.9798L324.025 11.9871C322.215 11.8325 320.512 12.4576 318.951 13.3914C317.393 14.3235 315.888 15.6168 314.458 16.9192C313 18.2469 311.636 19.568 310.264 20.6801C308.891 21.7923 307.626 22.5956 306.434 22.9289L306.972 24.8551ZM323.855 13.9798C326.678 14.2209 327.356 14.8882 329.042 15.6482C330.806 16.4434 333.245 17.1002 339.149 17.1002V15.1002C333.392 15.1002 331.269 14.4583 329.864 13.825C328.381 13.1565 327.285 12.2654 324.025 11.9871L323.855 13.9798ZM339.149 17.1002C342.297 17.1002 344.474 16.1412 346.135 14.6327C347.74 13.1747 348.815 11.2349 349.838 9.45622C350.891 7.62641 351.911 5.91559 353.427 4.57786C354.91 3.26977 356.919 2.27677 360.013 2.0329L359.856 0.0390807C356.36 0.314666 353.933 1.46441 352.104 3.07826C350.309 4.66245 349.143 6.65274 348.105 8.45912C347.036 10.3167 346.116 11.9481 344.79 13.1523C343.52 14.306 341.831 15.1002 339.149 15.1002V17.1002ZM360.013 2.0329C363.013 1.79648 365.964 2.85347 368.922 4.72217C371.884 6.5933 374.767 9.22333 377.613 12.0097C380.428 14.7664 383.235 17.7061 385.943 20.0536C388.641 22.393 391.405 24.2972 394.208 24.8716L394.609 22.9123C392.343 22.4478 389.91 20.8457 387.253 18.5425C384.606 16.2474 381.9 13.4081 379.012 10.5807C376.154 7.78296 373.144 5.02365 369.99 3.03134C366.833 1.0366 363.447 -0.243959 359.856 0.0390807L360.013 2.0329ZM394.208 24.8716C399.651 25.9872 404.37 23.8733 408.621 21.6625C410.786 20.537 412.798 19.4022 414.836 18.529C416.857 17.6628 418.806 17.1002 420.771 17.1002V15.1002C418.426 15.1002 416.193 15.7712 414.048 16.6907C411.919 17.6031 409.78 18.8059 407.699 19.888C403.459 22.0926 399.305 23.8746 394.609 22.9123L394.208 24.8716ZM420.771 17.1002C422.697 17.1002 424.653 17.7684 426.735 18.8468C428.826 19.9295 430.938 21.3673 433.217 22.8476C437.697 25.7569 442.765 28.8035 448.701 28.5271L448.608 26.5292C443.391 26.7722 438.826 24.1049 434.307 21.1703C432.087 19.7287 429.858 18.212 427.655 17.0709C425.444 15.9254 423.155 15.1002 420.771 15.1002V17.1002ZM448.701 28.5271C451.604 28.3919 453.708 27.8135 455.373 26.9873C457.031 26.1643 458.197 25.1212 459.221 24.1702C460.263 23.2025 461.116 22.3764 462.25 21.7591C463.353 21.1589 464.769 20.7363 466.905 20.7363V18.7363C464.479 18.7363 462.726 19.2228 461.294 20.0024C459.893 20.7649 458.846 21.7893 457.86 22.7047C456.856 23.6367 455.867 24.5091 454.484 25.1958C453.106 25.8793 451.281 26.4047 448.608 26.5292L448.701 28.5271ZM466.905 20.7363C471.11 20.7363 473.411 22.4904 476.001 24.4323C478.631 26.4039 481.517 28.5281 486.677 28.5281V26.5282C482.204 26.5282 479.768 24.7565 477.201 22.8321C474.595 20.8782 471.826 18.7363 466.905 18.7363V20.7363ZM486.677 28.5281C491.838 28.5281 494.732 26.4091 496.928 24.364C498.051 23.3172 498.851 22.4414 499.759 21.7492C500.611 21.1002 501.416 20.7363 502.393 20.7363V18.7363C500.835 18.7363 499.613 19.3464 498.547 20.1585C497.538 20.9272 496.532 21.9993 495.565 22.9005C493.578 24.7513 491.148 26.5282 486.677 26.5282V28.5281ZM502.393 20.7363C504.955 20.7363 508.064 20.6057 511.001 20.0708C513.911 19.5407 516.789 18.5901 518.769 16.8515L517.449 15.3488C515.88 16.727 513.435 17.5945 510.642 18.1032C507.875 18.6072 504.901 18.7363 502.393 18.7363V20.7363ZM518.769 16.8515C519.665 16.0647 520.717 14.9931 521.693 14.0781C522.713 13.1207 523.72 12.2639 524.69 11.7085C525.665 11.1501 526.46 10.978 527.126 11.1511C527.777 11.3204 528.573 11.8923 529.391 13.4486L531.162 12.5182C530.205 10.6981 529.037 9.5818 527.629 9.21546C526.235 8.8528 524.875 9.29761 523.696 9.97288C522.511 10.6512 521.363 11.645 520.324 12.6193C519.24 13.636 518.328 14.5773 517.449 15.3488L518.769 16.8515ZM529.391 13.4486C530.265 15.1115 531.134 17.0519 532.073 19.043C533.001 21.0099 533.992 23.0099 535.076 24.6932C536.147 26.3567 537.386 27.8324 538.859 28.6209C540.424 29.4584 542.16 29.4687 543.971 28.3865L542.945 26.6698C541.713 27.4057 540.725 27.351 539.802 26.8575C538.788 26.3148 537.777 25.1933 536.757 23.6102C535.75 22.0469 534.808 20.151 533.882 18.1895C532.968 16.2523 532.062 14.2318 531.162 12.5182L529.391 13.4486ZM543.971 28.3865C546.815 26.6865 549.441 26.3725 551.726 27.0575C554.03 27.7485 556.134 29.5009 557.817 32.2114L559.516 31.1562C557.651 28.1527 555.192 26.0092 552.3 25.1418C549.388 24.2685 546.184 24.7337 542.945 26.6698L543.971 28.3865ZM557.817 32.2114C558.679 33.5987 559.574 35.3693 560.568 37.2759C561.55 39.1585 562.619 41.1521 563.795 42.8925C564.963 44.6207 566.294 46.1881 567.836 47.1435C569.429 48.1304 571.248 48.4588 573.229 47.6783L572.495 45.8176C571.181 46.3357 570.021 46.1447 568.889 45.4434C567.706 44.7105 566.566 43.4209 565.452 41.7727C564.347 40.1366 563.324 38.2343 562.342 36.3509C561.372 34.4915 560.429 32.6258 559.516 31.1562L557.817 32.2114ZM573.229 47.6783C576.239 46.4919 579.087 47.08 582.523 47.4185C585.911 47.7523 589.617 47.7686 593.705 44.9764L592.577 43.3249C589.06 45.7273 585.921 45.7436 582.719 45.4281C579.564 45.1173 576.075 44.4067 572.495 45.8176L573.229 47.6783ZM593.705 44.9764C595.635 43.6579 597.542 42.1349 599.356 40.7491C601.192 39.3461 602.941 38.0765 604.636 37.1773C606.332 36.2775 607.887 35.7962 609.343 35.8722C610.764 35.9463 612.216 36.5579 613.718 38.0962L615.149 36.6993C613.355 34.8612 611.449 33.9793 609.447 33.8749C607.482 33.7723 605.552 34.4273 603.699 35.4106C601.845 36.3944 599.981 37.7545 598.142 39.1599C596.28 40.5823 594.449 42.0462 592.577 43.3249L593.705 44.9764ZM613.718 38.0962C616.984 41.4426 619.39 43.9252 622.752 45.5098C626.125 47.0994 630.361 47.748 637.247 47.748V45.748C630.445 45.748 626.569 45.0979 623.605 43.7007C620.63 42.2983 618.474 40.1058 615.149 36.6993L613.718 38.0962ZM637.247 47.748C640.65 47.748 643.423 47.8448 645.808 47.9259C648.183 48.0068 650.201 48.0735 652.048 48.007C655.806 47.8719 658.865 47.1856 663.051 45.0407L662.14 43.2607C658.215 45.2714 655.443 45.8837 651.977 46.0083C650.212 46.0718 648.269 46.0086 645.876 45.9271C643.492 45.8459 640.688 45.748 637.247 45.748V47.748ZM663.051 45.0407C667.04 42.9972 671.623 41.3544 675.539 40.79C677.499 40.5076 679.236 40.5038 680.627 40.8165C682.009 41.127 682.979 41.7306 683.557 42.6182L685.233 41.5275C684.29 40.0776 682.789 39.2527 681.066 38.8652C679.352 38.4799 677.35 38.5085 675.254 38.8105C671.059 39.4149 666.262 41.1485 662.14 43.2607L663.051 45.0407ZM683.557 42.6182C686.117 46.5531 689.934 48.984 691.585 49.7359L692.414 47.9157C691.023 47.2824 687.54 45.0728 685.233 41.5275L683.557 42.6182Z" fill="#FF9500"/>
</svg>
