<svg width="19" height="18" viewBox="0 0 19 18" fill="none" xmlns="http://www.w3.org/2000/svg">
<path fill-rule="evenodd" clip-rule="evenodd" d="M3.75936 4.92781C3.75936 3.1602 5.19229 1.72727 6.95989 1.72727C8.7275 1.72727 10.1604 3.1602 10.1604 4.92781C10.1604 6.69542 8.7275 8.12834 6.95989 8.12834C5.19229 8.12834 3.75936 6.69542 3.75936 4.92781ZM6.95989 0C4.23834 0 2.03209 2.20625 2.03209 4.92781C2.03209 7.64936 4.23834 9.85562 6.95989 9.85562C9.68145 9.85562 11.8877 7.64936 11.8877 4.92781C11.8877 2.20625 9.68145 0 6.95989 0ZM1.72727 15.0036C1.72727 14.5941 2.0612 14.0701 3.11759 13.6036C4.123 13.1596 5.52142 12.9037 6.95989 12.9037C8.37799 12.9037 9.77524 13.2016 10.7882 13.6705C11.2952 13.9052 11.667 14.1648 11.9009 14.4154C12.1261 14.6567 12.1901 14.8501 12.1924 14.9952C12.1842 15.0171 12.1469 15.0863 12.0022 15.1987C11.7803 15.3713 11.4098 15.5573 10.8868 15.7253C9.85009 16.0585 8.41924 16.2567 6.95989 16.2567C5.23415 16.2567 3.81357 16.0556 2.8564 15.7299C2.37514 15.5662 2.06364 15.3885 1.88749 15.233C1.72619 15.0907 1.72712 15.0157 1.72727 15.0043L1.72727 15.0036ZM12.1944 14.9877C12.1946 14.9877 12.1944 14.9896 12.1931 14.9935C12.1936 14.9896 12.1942 14.9877 12.1944 14.9877ZM6.95989 11.1765C5.35024 11.1765 3.70053 11.458 2.41984 12.0235C1.19014 12.5665 0 13.5242 0 15.0036C0 15.6426 0.322646 16.1558 0.744693 16.5282C1.15595 16.8911 1.70173 17.1616 2.30002 17.3652C3.50193 17.7741 5.12949 17.984 6.95989 17.984C8.54868 17.984 10.166 17.7713 11.4153 17.3698C12.0354 17.1705 12.6175 16.9082 13.0623 16.5625C13.5036 16.2195 13.9198 15.7013 13.9198 15.0036C13.9198 14.303 13.6009 13.7053 13.1636 13.2368C12.7307 12.773 12.15 12.3976 11.5139 12.1031C10.2408 11.5137 8.58993 11.1765 6.95989 11.1765ZM13.2125 8.90914C13.2583 8.43437 13.6803 8.08657 14.155 8.13233C15.3887 8.25121 16.5332 8.57188 17.3981 9.07203C18.2357 9.55638 19 10.3332 19 11.4034C19 11.958 18.7877 12.4638 18.375 12.8657C17.9859 13.2446 17.4548 13.4981 16.8479 13.6701C16.389 13.8002 15.9115 13.5337 15.7814 13.0748C15.6513 12.6159 15.9179 12.1384 16.3767 12.0083C16.8315 11.8794 17.0624 11.733 17.1699 11.6283C17.2538 11.5466 17.2727 11.485 17.2727 11.4034C17.2727 11.2441 17.1536 10.9259 16.5334 10.5673C15.9406 10.2244 15.053 9.95413 13.9894 9.85163C13.5146 9.80588 13.1668 9.38391 13.2125 8.90914ZM15.0882 0C14.6113 0 14.2246 0.386663 14.2246 0.863636C14.2246 1.34061 14.6113 1.72727 15.0882 1.72727C16.0141 1.72727 16.7647 2.47785 16.7647 3.40374C16.7647 4.32963 16.0141 5.08021 15.0882 5.08021C14.6113 5.08021 14.2246 5.46688 14.2246 5.94385C14.2246 6.42082 14.6113 6.80749 15.0882 6.80749C16.9681 6.80749 18.492 5.28358 18.492 3.40374C18.492 1.52391 16.9681 0 15.0882 0Z" fill="#347AE2"/>
</svg>
