<svg width="20" height="20" viewBox="0 0 20 20" fill="none" xmlns="http://www.w3.org/2000/svg">
<path fill-rule="evenodd" clip-rule="evenodd" d="M1.72589 9.99999C1.72589 5.43033 5.43033 1.72589 9.99999 1.72589C10.9045 1.72589 11.7734 1.8707 12.5859 2.13774C13.0386 2.28656 13.5263 2.04016 13.6751 1.5874C13.8239 1.13464 13.5775 0.646963 13.1248 0.498147C12.1406 0.174651 11.0898 0 9.99999 0C4.47715 0 0 4.47715 0 9.99999C0 15.5228 4.47715 20 9.99999 20C15.5228 20 20 15.5228 20 9.99999C20 9.5234 19.6136 9.13705 19.137 9.13705C18.6605 9.13705 18.2741 9.5234 18.2741 9.99999C18.2741 14.5697 14.5697 18.2741 9.99999 18.2741C5.43033 18.2741 1.72589 14.5697 1.72589 9.99999ZM17.7181 5.53272C18.0544 5.19499 18.0532 4.64861 17.7155 4.31234C17.3777 3.97607 16.8313 3.97726 16.4951 4.31499L10.0503 10.7878L7.58469 8.1503C7.25922 7.80215 6.71315 7.78376 6.365 8.10923C6.01685 8.4347 5.99846 8.98078 6.32393 9.32893L9.40038 12.6198C9.56033 12.7909 9.78297 12.8896 10.0172 12.8933C10.2514 12.897 10.477 12.8053 10.6423 12.6393L17.7181 5.53272Z" fill="#347AE2"/>
</svg>
