<svg width="20" height="18" viewBox="0 0 20 18" fill="none" xmlns="http://www.w3.org/2000/svg">
<path fill-rule="evenodd" clip-rule="evenodd" d="M13.6559 0.25275C13.3189 -0.0842501 12.7725 -0.0842501 12.4355 0.25275C12.0985 0.589751 12.0985 1.13614 12.4355 1.47314L17.0537 6.09137H5.93908C4.36394 6.09137 2.85331 6.71709 1.73952 7.83088C0.625723 8.94468 0 10.4553 0 12.0304C0 13.6056 0.625723 15.1162 1.73952 16.23C2.85331 17.3438 4.36394 17.9695 5.93908 17.9695H13.0457C13.5223 17.9695 13.9086 17.5832 13.9086 17.1066C13.9086 16.63 13.5223 16.2436 13.0457 16.2436H5.93908C4.82167 16.2436 3.75003 15.7998 2.9599 15.0096C2.16978 14.2195 1.72589 13.1479 1.72589 12.0304C1.72589 10.913 2.16978 9.8414 2.9599 9.05127C3.75003 8.26114 4.82167 7.81725 5.93908 7.81725H17.0537L12.4355 12.4355C12.0985 12.7725 12.0985 13.3189 12.4355 13.6559C12.7725 13.9929 13.3189 13.9929 13.6559 13.6559L19.7472 7.5645C20.0842 7.2275 20.0842 6.68112 19.7472 6.34412L13.6559 0.25275Z" fill="#347AE2"/>
</svg>
