<svg width="20" height="20" viewBox="0 0 20 20" fill="none" xmlns="http://www.w3.org/2000/svg">
<path fill-rule="evenodd" clip-rule="evenodd" d="M1.72589 9.99999C1.72589 7.96055 1.72615 6.40017 1.78821 5.19013C1.85107 3.96419 1.97468 3.19903 2.17178 2.70627C2.34377 2.27629 2.55755 2.08161 2.88891 1.95274C3.29573 1.79454 3.91253 1.72589 4.92385 1.72589C5.91249 1.72589 6.60227 1.78856 7.08437 1.89569C7.56493 2.00249 7.77105 2.13865 7.86696 2.23456C7.95249 2.32008 8.02497 2.44715 8.07011 2.71801C8.11937 3.01358 8.12182 3.37912 8.12182 3.90863C8.12182 4.38522 8.50818 4.77157 8.98477 4.77157C9.46136 4.77157 9.84771 4.38522 9.84771 3.90863L9.84771 3.86541V3.86539C9.84778 3.392 9.84786 2.88632 9.77252 2.43427C9.69076 1.94371 9.50943 1.43626 9.08734 1.01417C8.67564 0.602467 8.12033 0.357919 7.45877 0.210904C6.79874 0.0642312 5.96568 0 4.92385 0C3.90472 0 2.99868 0.0582535 2.26337 0.344209C1.4526 0.659507 0.904955 1.22624 0.569334 2.0653C0.258821 2.84158 0.128619 3.85306 0.0645841 5.10174C0 6.36113 0 7.96531 0 9.97514V9.97534V9.99999V10.0247V10.0248C0 12.0347 0 13.6389 0.0645841 14.8982C0.128619 16.1469 0.258821 17.1584 0.569334 17.9347C0.904955 18.7737 1.4526 19.3405 2.26337 19.6558C2.99868 19.9417 3.90472 20 4.92385 20C5.96568 20 6.79874 19.9358 7.45877 19.7891C8.12033 19.6421 8.67564 19.3975 9.08734 18.9858C9.50943 18.5637 9.69076 18.0563 9.77252 17.5657C9.84786 17.1137 9.84778 16.608 9.84771 16.1346V16.1346L9.84771 16.0914C9.84771 15.6148 9.46136 15.2284 8.98477 15.2284C8.50818 15.2284 8.12182 15.6148 8.12182 16.0914C8.12182 16.6209 8.11937 16.9864 8.07011 17.282C8.02497 17.5528 7.95249 17.6799 7.86696 17.7654C7.77105 17.8613 7.56493 17.9975 7.08437 18.1043C6.60227 18.2114 5.91249 18.2741 4.92385 18.2741C3.91253 18.2741 3.29573 18.2055 2.88891 18.0472C2.55755 17.9184 2.34377 17.7237 2.17178 17.2937C1.97468 16.801 1.85107 16.0358 1.78821 14.8099C1.72615 13.5998 1.72589 12.0394 1.72589 9.99999ZM15.6863 5.32889C15.3493 4.99189 14.8029 4.99189 14.4659 5.32889C14.1289 5.66589 14.1289 6.21228 14.4659 6.54928L17.0537 9.13705H8.98477C8.50818 9.13705 8.12182 9.5234 8.12182 9.99999C8.12182 10.4766 8.50818 10.8629 8.98477 10.8629H17.0537L14.4659 13.4507C14.1289 13.7877 14.1289 14.3341 14.4659 14.6711C14.8029 15.0081 15.3493 15.0081 15.6863 14.6711L19.7472 10.6102C20.0842 10.2732 20.0842 9.7268 19.7472 9.3898L15.6863 5.32889Z" fill="#FF3B30"/>
</svg>
