<svg width="20" height="21" viewBox="0 0 20 21" fill="none" xmlns="http://www.w3.org/2000/svg">
<path fill-rule="evenodd" clip-rule="evenodd" d="M4.52022 5.44152C6.13142 5.99439 7.81884 4.88468 8.1186 3.35367C8.30289 2.55795 8.5192 2.20998 8.73381 2.03189C8.94097 1.85998 9.29436 1.72464 10.0621 1.72464C10.6563 1.72464 10.9934 1.87407 11.2137 2.08104C11.4506 2.30364 11.6702 2.70333 11.802 3.42637L11.802 3.42637L11.8028 3.4309C11.9604 4.27016 12.5383 4.90304 13.2099 5.25315C13.8834 5.60426 14.7283 5.71484 15.5249 5.4344C15.536 5.4305 15.547 5.42638 15.5579 5.42203C16.322 5.11742 16.7373 5.12344 16.9909 5.2091C17.2404 5.29335 17.5265 5.51966 17.8806 6.11947C18.2424 6.73254 18.2901 7.05966 18.2485 7.28088C18.205 7.51247 18.0214 7.85492 17.3757 8.39076L17.3639 8.40074C16.0682 9.51579 16.0682 11.4842 17.3639 12.5993L17.3757 12.6092C18.0214 13.1451 18.205 13.4875 18.2485 13.7191C18.2901 13.9403 18.2424 14.2675 17.8806 14.8805C17.5285 15.4769 17.2381 15.7137 16.9746 15.8086C16.7055 15.9056 16.2823 15.9203 15.5207 15.6605C13.9757 15.1195 12.0992 16.0399 11.8005 17.7747C11.6678 18.5455 11.4544 18.8504 11.2637 18.9981C11.0582 19.1573 10.6999 19.2754 9.96255 19.2754C9.2528 19.2754 8.88757 19.1433 8.67295 18.9711C8.46498 18.8043 8.25434 18.4835 8.12377 17.77C7.82255 16.0382 5.94801 15.12 4.40446 15.6605C3.64282 15.9203 3.21957 15.9056 2.95051 15.8086C2.68701 15.7137 2.39655 15.4769 2.04453 14.8805C2.03971 14.8724 2.03475 14.8643 2.02966 14.8563C1.72018 14.3694 1.68781 14.032 1.75333 13.7667C1.82696 13.4686 2.06726 13.0858 2.64476 12.6127L2.66078 12.5993C3.97883 11.465 3.83407 9.49906 2.56495 8.49846C1.98913 7.93409 1.80935 7.57529 1.76757 7.31529C1.72781 7.06782 1.78492 6.73129 2.13675 6.13192C2.45941 5.62821 2.75725 5.41452 3.04899 5.32465C3.36223 5.22815 3.81279 5.22951 4.52022 5.44152ZM10.0621 0C9.13753 0 8.29634 0.153792 7.63246 0.704708C6.97734 1.24836 6.64747 2.05374 6.4343 2.98245C6.43173 2.99365 6.42939 3.0049 6.42727 3.0162C6.31968 3.58909 5.63842 4.00689 5.07244 3.80763C5.06031 3.80336 5.0481 3.79937 5.03579 3.79564C4.15977 3.5306 3.32068 3.43634 2.54127 3.67644C1.74026 3.92319 1.14454 4.47787 0.673718 5.21858C0.668629 5.22659 0.663673 5.23468 0.658851 5.24285C0.220836 5.98496 -0.0694007 6.75381 0.0647722 7.58888C0.196402 8.40812 0.707305 9.10065 1.39895 9.77026C1.42452 9.79502 1.4516 9.81817 1.48004 9.83959C1.95682 10.1986 1.99302 10.8917 1.54225 11.2865C0.830263 11.8717 0.278245 12.5466 0.0790112 13.3532C-0.12812 14.1918 0.0849819 15.0067 0.566427 15.7692C1.0096 16.5167 1.56367 17.1422 2.36599 17.4312C3.16668 17.7197 4.03674 17.6087 4.96536 17.2914L4.96537 17.2914L4.97289 17.2887C5.61718 17.0619 6.32568 17.4907 6.42495 18.0673L6.42491 18.0673L6.42643 18.0756C6.59456 18.998 6.93107 19.7848 7.59379 20.3164C8.2502 20.843 9.07954 21 9.96255 21C10.8179 21 11.6543 20.8771 12.3198 20.3616C13.0001 19.8347 13.3342 19.0313 13.5002 18.0673C13.5994 17.4907 14.3079 17.0619 14.9522 17.2887L14.9522 17.2888L14.9597 17.2914C15.8884 17.6087 16.7584 17.7197 17.5591 17.4312C18.3657 17.1406 18.9214 16.51 19.3658 15.7572C19.8003 15.0209 20.1011 14.2397 19.9435 13.4008C19.7884 12.5748 19.2284 11.9069 18.4839 11.2878C17.9943 10.8617 17.9943 10.1383 18.4839 9.71221C19.2284 9.09313 19.7884 8.4252 19.9435 7.5992C20.1011 6.76027 19.8003 5.97905 19.3658 5.24285C18.9234 4.49338 18.3634 3.8523 17.5428 3.57513C16.732 3.3013 15.8597 3.4479 14.9386 3.81232C14.6432 3.91164 14.2997 3.87636 14.0071 3.72384C13.7089 3.56838 13.5402 3.33466 13.4982 3.11427C13.3311 2.20008 13.0033 1.39613 12.3947 0.824215C11.7688 0.236076 10.9611 0 10.0621 0ZM7.81189 10.5C7.81189 9.29538 8.78843 8.31884 9.99305 8.31884C11.1977 8.31884 12.1742 9.29538 12.1742 10.5C12.1742 11.7046 11.1977 12.6812 9.99305 12.6812C8.78843 12.6812 7.81189 11.7046 7.81189 10.5ZM9.99305 6.5942C7.83594 6.5942 6.08726 8.34289 6.08726 10.5C6.08726 12.6571 7.83594 14.4058 9.99305 14.4058C12.1502 14.4058 13.8989 12.6571 13.8989 10.5C13.8989 8.34289 12.1502 6.5942 9.99305 6.5942Z" fill="#7C8DB5"/>
</svg>
