<svg width="222" height="99" viewBox="0 0 222 99" fill="none" xmlns="http://www.w3.org/2000/svg">
<path d="M16.7168 16.064C30.2331 24.2419 44.0514 28.5751 33.3838 38.9971C21.5244 50.5836 33.8165 53.5439 54.1 65.6258C60.0646 69.1787 91.284 51.2738 80.3468 46.8938C64.5015 40.5484 56.2664 34.8402 66.0397 27.3947C75.8131 19.9492 90.7492 -1.51887 98.5936 7.97482C111.245 23.2867 162.784 62.4521 164.454 69.1787C167.672 82.1443 149.478 83.1398 155.634 88.8524C173.168 105.125 199.576 94.31 210.08 86.3679" stroke="#512678" stroke-width="3" stroke-linecap="round"/>
<g filter="url(#filter0_d_0_1834)">
<path fill-rule="evenodd" clip-rule="evenodd" d="M204 79.5202C204 75.9193 207.134 73 211 73C214.866 73 218 75.9193 218 79.5202C218 83.1768 214.69 85.2079 213.362 86.023C213.133 86.1637 212.963 86.2682 212.879 86.3386C212.296 86.827 211.815 87.92 211.621 88.54C211.527 88.8406 211.263 88.9929 211 89C210.738 88.9935 210.473 88.8411 210.379 88.54C210.185 87.92 209.704 86.8264 209.121 86.3386C209.037 86.2682 208.867 86.1637 208.638 86.023C207.31 85.2079 204 83.1768 204 79.5202ZM209.091 79.5202C209.091 80.5024 209.946 81.2984 211 81.2984C212.054 81.2984 212.909 80.5024 212.909 79.5202C212.909 78.538 212.054 77.742 211 77.742C209.946 77.742 209.091 78.538 209.091 79.5202Z" fill="#FF2D55"/>
</g>
<g filter="url(#filter1_d_0_1834)">
<circle cx="16" cy="16" r="6" fill="#FF61AD"/>
<circle cx="16" cy="16" r="5" stroke="white" stroke-width="2"/>
</g>
<defs>
<filter id="filter0_d_0_1834" x="200" y="72" width="22" height="24" filterUnits="userSpaceOnUse" color-interpolation-filters="sRGB">
<feFlood flood-opacity="0" result="BackgroundImageFix"/>
<feColorMatrix in="SourceAlpha" type="matrix" values="0 0 0 0 0 0 0 0 0 0 0 0 0 0 0 0 0 0 127 0" result="hardAlpha"/>
<feOffset dy="3"/>
<feGaussianBlur stdDeviation="2"/>
<feColorMatrix type="matrix" values="0 0 0 0 0 0 0 0 0 0 0 0 0 0 0 0 0 0 0.145833 0"/>
<feBlend mode="normal" in2="BackgroundImageFix" result="effect1_dropShadow_0_1834"/>
<feBlend mode="normal" in="SourceGraphic" in2="effect1_dropShadow_0_1834" result="shape"/>
</filter>
<filter id="filter1_d_0_1834" x="0" y="0" width="32" height="32" filterUnits="userSpaceOnUse" color-interpolation-filters="sRGB">
<feFlood flood-opacity="0" result="BackgroundImageFix"/>
<feColorMatrix in="SourceAlpha" type="matrix" values="0 0 0 0 0 0 0 0 0 0 0 0 0 0 0 0 0 0 127 0" result="hardAlpha"/>
<feOffset/>
<feGaussianBlur stdDeviation="5"/>
<feColorMatrix type="matrix" values="0 0 0 0 0 0 0 0 0 0 0 0 0 0 0 0 0 0 0.2 0"/>
<feBlend mode="normal" in2="BackgroundImageFix" result="effect1_dropShadow_0_1834"/>
<feBlend mode="normal" in="SourceGraphic" in2="effect1_dropShadow_0_1834" result="shape"/>
</filter>
</defs>
</svg>
