<svg width="14" height="14" viewBox="0 0 14 14" fill="none" xmlns="http://www.w3.org/2000/svg">
<path fill-rule="evenodd" clip-rule="evenodd" d="M10.4626 0.0277343C10.4626 0.0277343 13.0914 -0.00170634 13.1297 7.79466e-05C13.9621 0.0504839 14.0005 0.600935 14 0.822632V3.38888C14 3.84654 13.6292 4.21812 13.1607 4.21812C12.6927 4.21812 12.3223 3.84654 12.3223 3.38888V2.80943L11.3147 3.74261C12.4085 5.39842 12.1645 7.6377 10.6829 9.08698C9.85683 9.89437 8.75935 10.3409 7.59162 10.3409C7.09442 10.3409 6.60999 10.2601 6.15339 10.1054C6.85996 9.81363 7.48807 9.35641 7.9798 8.77205C8.0172 8.727 8.05415 8.68061 8.09018 8.63422C8.61566 8.53831 9.09826 8.29074 9.48325 7.91337C10.5274 6.89365 10.5274 5.23338 9.48325 4.21277C8.9783 3.71852 8.30685 3.44642 7.59207 3.44642C6.8773 3.44642 6.20539 3.71897 5.7009 4.21277C4.75166 5.14149 4.66682 6.59746 5.44363 7.62075C5.10152 7.82772 4.70924 7.93701 4.30692 7.93701C4.28274 7.93701 4.25857 7.93656 4.23485 7.93567C4.07109 7.93032 3.90688 7.90757 3.74769 7.86519C3.69979 7.85226 3.65281 7.83798 3.60628 7.82282C2.88466 6.25042 3.18207 4.33856 4.50124 3.04897C5.32686 2.24203 6.42434 1.80622 7.59162 1.80622C8.49478 1.80622 9.35462 2.09393 10.0817 2.58818L10.9735 1.7509L10.484 1.82986H10.4731C10.0106 1.82986 9.63195 1.3936 9.62602 0.939502C9.61964 0.480942 9.9955 0.0330872 10.4626 0.0277343ZM5.06914 10.8913H6.08406C6.54477 10.8913 6.91835 11.2611 6.91835 11.7117C6.91835 12.1631 6.54522 12.5324 6.08406 12.5324H5.06914V13.1846C5.06914 13.6347 4.69191 14 4.23074 14C3.77004 14 3.39235 13.6347 3.39235 13.1846V12.5324H2.44676C1.9856 12.5324 1.61156 12.1631 1.61156 11.7117C1.61156 11.2616 1.9856 10.8918 2.44676 10.8918H3.39235V9.92648C1.46331 9.52056 0 7.83174 0 5.81371C0 3.49459 1.93725 1.60682 4.30874 1.60682C4.62622 1.60682 4.9364 1.64162 5.23472 1.70585C4.7918 1.9329 4.3831 2.22642 4.02092 2.58015C3.75544 2.83932 3.52326 3.12302 3.32621 3.42501C2.35964 3.8064 1.67496 4.73244 1.67496 5.81327C1.67496 7.23356 2.85547 8.38843 4.30692 8.38843C5.75928 8.38843 6.93933 7.23356 6.93933 5.81327C6.93933 5.29895 6.78424 4.81987 6.5174 4.41707C6.83533 4.21723 7.20389 4.10973 7.59116 4.10973C7.8352 4.10973 8.07148 4.15344 8.29317 4.23507C8.49661 4.72263 8.60563 5.25523 8.60563 5.81327C8.60563 7.87724 7.08165 9.59862 5.06914 9.95369V10.8913Z" fill="#C8C7CC"/>
</svg>
