<svg width="20" height="20" viewBox="0 0 20 20" fill="none" xmlns="http://www.w3.org/2000/svg">
<path fill-rule="evenodd" clip-rule="evenodd" d="M18.3335 5.83319L19.5119 4.65484C20.1627 4.004 20.1627 2.94899 19.5119 2.29815L17.7019 0.48813C17.051 -0.16271 15.996 -0.16271 15.3452 0.48813L14.1668 1.66648L18.3335 5.83319ZM0.0326809 19.4213L0.960843 16.7941L3.2067 19.04L0.560006 19.975L0.559786 19.9748C0.515156 19.9911 0.466954 20 0.416671 20C0.18655 20 0 19.8134 0 19.5833C0 19.5259 0.0116361 19.4711 0.0326809 19.4213ZM2.50003 13.3333L12.5001 3.33316L16.6668 7.49987L6.66674 17.5L6.25006 16.25L4.16671 15.8333L3.75004 13.7499L2.50003 13.3333Z" fill="#8A8A8F"/>
</svg>
