<svg width="14" height="16" viewBox="0 0 14 16" fill="none" xmlns="http://www.w3.org/2000/svg">
<path fill-rule="evenodd" clip-rule="evenodd" d="M3.81818 5.76H10.1818V4.48C10.1818 2.7125 8.75745 1.28 7 1.28C5.24255 1.28 3.81818 2.7125 3.81818 4.48V5.76ZM11.4545 5.76H12.7273C13.4305 5.76 14 6.3328 14 7.04V14.72C14 15.4272 13.4305 16 12.7273 16H1.27273C0.569545 16 0 15.4272 0 14.72V7.04C0 6.3328 0.569545 5.76 1.27273 5.76H2.54545V4.48C2.54545 2.00558 4.53964 0 7 0C9.46036 0 11.4545 2.00558 11.4545 4.48V5.76Z" fill="#C8C7CC"/>
</svg>
