<svg width="53" height="8" viewBox="0 0 53 8" fill="none" xmlns="http://www.w3.org/2000/svg">
<path d="M0.849361 3.28856H50.1405L47.9322 1.30212C47.5924 0.99651 47.5924 0.512632 47.9322 0.232492C48.2719 -0.0731145 48.8098 -0.0731145 49.1496 0.207025L52.7452 3.46683C52.9151 3.61964 53 3.79791 53 4.00164C53 4.20538 52.9151 4.38365 52.7452 4.53646L49.1496 7.77079C48.8098 8.0764 48.2719 8.0764 47.9605 7.77079C47.6207 7.46519 47.6207 6.98131 47.9605 6.70117L50.0556 4.8166H0.849361C0.368057 4.8166 0 4.48552 0 4.05258C0 3.61963 0.368057 3.28856 0.849361 3.28856Z" fill="#C8C7CC"/>
</svg>
