<svg width="13" height="16" viewBox="0 0 13 16" fill="none" xmlns="http://www.w3.org/2000/svg">
<path fill-rule="evenodd" clip-rule="evenodd" d="M6.89565 0H5.85565V1.1098C3.98526 1.49193 2.57203 3.24106 2.57203 5.34081V8.59323C2.57203 9.85672 1.95699 11.0297 0.945776 11.6938L0.261836 12.1941C-0.139915 12.4876 -0.065442 13.1398 0.390011 13.323C0.548584 13.3865 0.716783 13.4194 0.886501 13.4194H6.37499H6.62501H12.1135C12.2832 13.4194 12.4514 13.3865 12.61 13.323C13.0654 13.1398 13.1399 12.4876 12.7382 12.1941L12.0542 11.6938C11.043 11.0297 10.428 9.85672 10.428 8.59323V5.34081C10.428 3.14895 8.88803 1.33915 6.89565 1.06749V0ZM4.29565 14.4516C4.38067 15.3166 5.27398 16 6.37597 16C7.47732 16 8.37064 15.3166 8.45565 14.4516H4.29565Z" fill="white"/>
</svg>
