<svg width="12" height="12" viewBox="0 0 12 12" fill="none" xmlns="http://www.w3.org/2000/svg">
<path fill-rule="evenodd" clip-rule="evenodd" d="M11.1958 3.00002L9.80349 2.19609L8.99979 0.803924H7.39221L5.99986 0L4.60751 0.803924H2.99993L2.19602 2.1963L0.80391 3.00002V4.60762L0 6L0.80391 7.39238V8.99998L2.19626 9.80391L3.00017 11.1963H4.60775L5.9999 12L7.39225 11.1961H8.99983L9.80374 9.8037L11.1961 8.99977V7.39217L12 5.99979L11.1961 4.60741V3.00002H11.1958ZM5.45834 8.45574C5.34647 8.56762 5.19908 8.62199 5.05235 8.61994C4.90559 8.62202 4.75824 8.56762 4.64636 8.45574L2.89161 6.70095C2.67179 6.48114 2.67179 6.12454 2.89161 5.90472L3.35614 5.44018C3.57596 5.22036 3.93255 5.22036 4.15236 5.44018L5.05235 6.34018L7.84722 3.54506C8.06703 3.32524 8.42363 3.32524 8.64344 3.54506L9.10798 4.0096C9.32779 4.22942 9.32779 4.58602 9.10798 4.80584L5.45834 8.45574Z" fill="#007AFF"/>
</svg>
