<svg width="340" height="102" viewBox="0 0 340 102" fill="none" xmlns="http://www.w3.org/2000/svg">
<g opacity="0.25">
<path fill-rule="evenodd" clip-rule="evenodd" d="M119.529 100.535L136.705 1.71691H164.175L146.987 100.535H119.529Z" fill="#666666"/>
<path fill-rule="evenodd" clip-rule="evenodd" d="M246.619 4.14936C241.176 2.14661 232.649 0 221.998 0C194.856 0 175.734 13.4021 175.572 32.6099C175.419 46.809 189.223 54.731 199.642 59.4577C210.334 64.2999 213.93 67.3892 213.878 71.7146C213.81 78.3381 205.339 81.3649 197.443 81.3649C186.449 81.3649 180.609 79.8676 171.587 76.1782L168.046 74.6071L164.191 96.7281C170.608 99.4862 182.474 101.877 194.791 102C223.668 102 242.412 88.7512 242.626 68.2392C242.73 56.9988 235.41 48.4426 219.564 41.3914C209.961 36.8199 204.08 33.7684 204.142 29.1402C204.142 25.0324 209.119 20.6408 219.874 20.6408C228.857 20.5045 235.363 22.424 240.433 24.4267L242.894 25.5663L246.619 4.14936Z" fill="#666666"/>
<path fill-rule="evenodd" clip-rule="evenodd" d="M317.059 1.81152H295.832C289.256 1.81152 284.335 3.57008 281.447 10.0061L240.651 100.567H269.497C269.497 100.567 274.213 88.3896 275.281 85.7168C278.434 85.7168 306.454 85.7584 310.46 85.7584C311.282 89.2169 313.804 100.567 313.804 100.567H339.293L317.059 1.81152ZM283.187 65.5038C285.457 59.8098 294.131 37.8799 294.131 37.8799C293.967 38.143 296.386 32.1594 297.772 28.4492L299.629 36.9694C299.629 36.9694 304.89 60.5575 305.989 65.5038H283.187Z" fill="#666666"/>
<path fill-rule="evenodd" clip-rule="evenodd" d="M96.4899 1.78882L69.5952 69.1761L66.7302 55.4806C61.7242 39.6934 46.1253 22.5905 28.6845 14.0287L53.2761 100.45L82.3408 100.417L125.587 1.78882H96.4899Z" fill="#666666"/>
<path fill-rule="evenodd" clip-rule="evenodd" d="M44.6463 1.72826H0.351363L0 3.78401C34.4625 11.9635 57.2645 31.7297 66.73 55.4806L57.0984 10.0705C55.4343 3.8124 50.6117 1.94595 44.6463 1.72826Z" fill="#666666"/>
</g>
</svg>
