<svg width="255" height="34" viewBox="0 0 255 34" fill="none" xmlns="http://www.w3.org/2000/svg">
<path fill-rule="evenodd" clip-rule="evenodd" d="M237.94 0C247.328 0 254.94 7.61116 254.94 17C254.94 26.3888 247.328 34 237.94 34H20.8855C17.0928 34 13.5902 32.758 10.7622 30.6585C7.11636 32.9477 2.92213 33.677 0.538967 33.9089C0.0254542 33.9589 -0.195115 33.2527 0.209208 32.9322C1.48642 31.9198 3.12623 30.2485 3.5028 28.1319C4.13957 24.5529 3.84057 17 3.84057 17C3.84057 17 3.856 17.0123 3.88555 17.0361C3.88552 17.0241 3.88551 17.0121 3.88551 17C3.88551 7.61116 11.4967 0 20.8855 0H237.94Z" fill="#EFEFF4"/>
</svg>
