<svg width="16" height="16" viewBox="0 0 16 16" fill="none" xmlns="http://www.w3.org/2000/svg">
<path fill-rule="evenodd" clip-rule="evenodd" d="M11.9825 10.3573C11.7001 10.1917 11.353 10.1952 11.0719 10.3622L9.64862 11.2102C9.33002 11.4001 8.93211 11.3778 8.63993 11.1496C8.1349 10.7552 7.32168 10.0916 6.61421 9.38409C5.90674 8.67662 5.24309 7.86341 4.84866 7.35837C4.62049 7.0662 4.59823 6.66829 4.78814 6.34968L5.63613 4.92639C5.80378 4.64534 5.80518 4.29543 5.63961 4.013L3.55128 0.445724C3.34885 0.100683 2.94676 -0.0690548 2.5579 0.0262489C2.18016 0.118074 1.68973 0.342073 1.17565 0.856851C-0.434078 2.46658 -1.28903 5.18169 4.76449 11.2352C10.818 17.2887 13.5324 16.4345 15.1428 14.8241C15.6583 14.3086 15.8816 13.8175 15.9741 13.439C16.068 13.0508 15.9011 12.6515 15.5567 12.4498C14.6969 11.9469 12.8423 10.861 11.9825 10.3573Z" fill="#512678"/>
</svg>
