<svg width="14" height="13" viewBox="0 0 14 13" fill="none" xmlns="http://www.w3.org/2000/svg">
<path fill-rule="evenodd" clip-rule="evenodd" d="M11.4545 1.2381H12.7273C13.4292 1.2381 14 1.794 14 2.47619V11.7619C14 12.4447 13.4292 13 12.7273 13H1.27273C0.570818 13 0 12.4447 0 11.7619V2.47619C0 1.794 0.570818 1.2381 1.27273 1.2381H2.54545V3.09524H3.81818V0H5.09091V1.2381H8.90909V3.09524H10.1818V0H11.4545V1.2381ZM1.90909 7.42857H4.45455V4.95238H1.90909V7.42857ZM5.72727 7.42857H8.27273V4.95238H5.72727V7.42857ZM9.54545 7.42857H12.0909V4.95238H9.54545V7.42857ZM8.27273 11.1429H5.72727V8.66667H8.27273V11.1429ZM4.45455 11.1429H1.90909V8.66667H4.45455V11.1429Z" fill="#C8C7CC"/>
</svg>
