<svg width="16" height="15" viewBox="0 0 16 15" fill="none" xmlns="http://www.w3.org/2000/svg">
<path fill-rule="evenodd" clip-rule="evenodd" d="M0 6.6C0 2.955 3.58154 0 8 0C12.4185 0 16 2.955 16 6.6C16 10.245 12.4185 13.2 8 13.2C7.40185 13.2 6.81969 13.1454 6.25969 13.0416C5.87754 12.9714 5.48985 13.1022 5.21169 13.3668C4.32923 14.2056 3.048 15 1.53846 15C1.36853 15 1.23077 14.8657 1.23077 14.7C1.23077 14.5688 1.3172 14.4572 1.4376 14.4165C2.73604 13.8286 2.88236 12.5584 2.83815 11.6382C1.104 10.4274 0 8.6208 0 6.6Z" fill="#512678"/>
</svg>
