<svg width="22" height="21" viewBox="0 0 22 21" fill="none" xmlns="http://www.w3.org/2000/svg">
<path fill-rule="evenodd" clip-rule="evenodd" d="M0 9.075C0 4.06312 4.92462 0 11 0C17.0754 0 22 4.06312 22 9.075C22 14.0869 17.0754 18.15 11 18.15C10.1775 18.15 9.37708 18.0749 8.60708 17.9322C8.08162 17.8357 7.54854 18.0155 7.16608 18.3794C5.95373 19.5317 4.19401 20.6231 2.1207 20.625C2.11896 20.625 2.11721 20.625 2.11546 20.625C1.8818 20.625 1.69238 20.4403 1.69238 20.2125C1.69238 20.0323 1.81096 19.879 1.97622 19.8229C3.76201 19.0146 3.96325 17.2679 3.90246 16.0025C1.518 14.3377 0 11.8536 0 9.075Z" fill="#512678"/>
</svg>
