<svg width="28" height="28" viewBox="0 0 28 28" fill="none" xmlns="http://www.w3.org/2000/svg">
<path d="M16.1028 11.8972H25.8972C27.0601 11.8972 28.0015 12.8385 28 14C28 15.1629 27.0586 16.1043 25.8972 16.1028C25.4406 16.1043 16.1028 16.1028 16.1028 16.1028V25.8972C16.1028 27.0601 15.1615 28.0015 14 28C12.8371 28 11.8957 27.0586 11.8972 25.8972C11.8957 25.4406 11.8972 16.1028 11.8972 16.1028H2.10283C0.939878 16.1028 -0.00148539 15.1615 1.7596e-06 14C1.7596e-06 12.8371 0.941366 11.8957 2.10283 11.8972C2.55938 11.8957 11.8972 11.8972 11.8972 11.8972V2.10283C11.8972 0.939878 12.8385 -0.00148539 14 1.7596e-06C15.1629 1.7596e-06 16.1043 0.941366 16.1028 2.10283C16.1043 2.55938 16.1028 11.8972 16.1028 11.8972Z" fill="white"/>
</svg>
