<svg width="15" height="13" viewBox="0 0 15 13" fill="none" xmlns="http://www.w3.org/2000/svg">
<path fill-rule="evenodd" clip-rule="evenodd" d="M7.10791 13C3.18232 13 0 10.0899 0 6.5C0 2.91015 3.18232 0 7.10791 0C11.0335 0 14.2158 2.91015 14.2158 6.5C14.2158 10.0899 11.0335 13 7.10791 13ZM7.10791 12C10.4296 12 13.1223 9.53757 13.1223 6.5C13.1223 3.46243 10.4296 1 7.10791 1C3.78626 1 1.09353 3.46243 1.09353 6.5C1.09353 9.53757 3.78626 12 7.10791 12ZM7.65468 6V3H6.56115V6H3.28058V7H6.56115V10H7.65468V7H10.9353V6H7.65468Z" fill="#8A8A8F"/>
</svg>
