<svg width="23" height="23" viewBox="0 0 23 23" fill="none" xmlns="http://www.w3.org/2000/svg">
<path d="M6.34294 8.16401C5.42107 8.16401 4.67374 9.06161 4.67374 10.1689C4.67374 11.2761 5.42107 12.1737 6.34294 12.1737C7.26481 12.1737 8.01213 11.2761 8.01213 10.1689C8.01213 9.06161 7.26481 8.16401 6.34294 8.16401Z" fill="#8A8A8F"/>
<path d="M11.6844 8.16401C10.7625 8.16401 10.0152 9.06161 10.0152 10.1689C10.0152 11.2761 10.7625 12.1737 11.6844 12.1737C12.6062 12.1737 13.3536 11.2761 13.3536 10.1689C13.3536 9.06161 12.6062 8.16401 11.6844 8.16401Z" fill="#8A8A8F"/>
<path d="M15.3566 10.1689C15.3566 9.06161 16.1039 8.16401 17.0258 8.16401C17.9477 8.16401 18.695 9.06161 18.695 10.1689C18.695 11.2761 17.9477 12.1737 17.0258 12.1737C16.1039 12.1737 15.3566 11.2761 15.3566 10.1689Z" fill="#8A8A8F"/>
<path fill-rule="evenodd" clip-rule="evenodd" d="M17.1603 0.293379C13.5626 -0.0751304 9.94608 -0.0965165 6.34553 0.229427L6.0875 0.252786C2.65389 0.563616 0 4.00048 0 8.13627V21.7971C0 22.2203 0.185168 22.6124 0.487603 22.8296C0.790038 23.0467 1.16524 23.057 1.47562 22.8567L6.69791 19.4858C6.94083 19.329 7.21231 19.2469 7.48808 19.2469H19.4748C20.9865 19.2469 22.2821 17.9487 22.5531 16.1624C23.1023 12.542 23.1456 8.83709 22.6814 5.19961L22.5446 4.12769C22.2956 2.17616 20.9664 0.683233 19.3286 0.515472L17.1603 0.293379ZM6.49607 2.62846C9.98984 2.31218 13.4991 2.33293 16.9901 2.69051L19.1584 2.91261C19.8746 2.98597 20.4558 3.63881 20.5647 4.49221L20.7015 5.56413C21.132 8.93757 21.0918 12.3736 20.5825 15.7311C20.485 16.3739 20.0188 16.8411 19.4748 16.8411H7.48808C6.88138 16.8411 6.28413 17.0216 5.74971 17.3666L2.00303 19.785V8.13627C2.00303 5.25905 3.84932 2.86806 6.23804 2.65182L6.49607 2.62846Z" fill="#8A8A8F"/>
</svg>
