<svg width="21" height="27" viewBox="0 0 21 27" fill="none" xmlns="http://www.w3.org/2000/svg">
<path d="M0.559113 9.56641L4.06832 8.91307C4.05539 11.6885 4.39082 13.8162 5.32134 15.6841C6.24679 17.5418 7.73474 19.0904 9.92578 20.7558L6.80964 22.9474C1.83887 18.858 0.572725 13.6224 0.559113 9.56641Z" fill="#C8C7CC" stroke="#C8C7CC"/>
<path d="M9.6574 1.33335C10.5987 1.51944 10.9366 2.34188 10.573 3.05394C9.71572 4.73254 9.33384 6.0041 9.07362 7.60266C8.97923 8.18249 8.39302 8.77785 7.53777 9.11764C6.17028 9.66096 4.97593 10.4552 4.03249 11.1238C3.82369 11.2717 3.51517 11.3799 3.12874 11.4201C2.74722 11.4599 2.32757 11.4291 1.93369 11.3345C1.53857 11.2395 1.19301 11.0861 0.947508 10.8999C0.698838 10.7112 0.588371 10.5178 0.571189 10.3497C0.440764 9.07336 0.615417 7.30521 1.2113 5.53794C1.80741 3.77003 2.80823 2.0514 4.28975 0.824024C4.61426 0.555182 5.12798 0.437877 5.63602 0.538315L9.6574 1.33335Z" fill="#C8C7CC" stroke="#C8C7CC"/>
<path d="M20.0866 22.3475C20.546 21.5627 20.0922 20.7898 19.2727 20.5834C17.3409 20.0969 16.0515 19.5397 14.5733 18.6842C14.0371 18.3739 13.1686 18.4004 12.3344 18.7827C11.0007 19.3939 9.57399 19.72 8.41327 19.9508C8.15639 20.0019 7.86731 20.1492 7.58314 20.3955C7.30259 20.6387 7.05507 20.9547 6.87654 21.294C6.69745 21.6344 6.59844 21.9778 6.59141 22.272C6.58428 22.57 6.67084 22.7736 6.79735 22.895C7.75771 23.8166 9.31913 24.8427 11.1536 25.5712C12.9888 26.2999 15.0467 26.7111 17.0147 26.4641C17.4458 26.41 17.8758 26.1239 18.1237 25.7003L20.0866 22.3475Z" fill="#C8C7CC" stroke="#C8C7CC"/>
</svg>
