<svg width="66" height="20" viewBox="0 0 66 20" fill="none" xmlns="http://www.w3.org/2000/svg">
<path fill-rule="evenodd" clip-rule="evenodd" d="M23.2515 19.5618L26.5926 0.33408H31.9361L28.5927 19.5618H23.2515Z" fill="#666666"/>
<path fill-rule="evenodd" clip-rule="evenodd" d="M47.9724 0.807372C46.9138 0.417683 45.255 0 43.1832 0C37.9036 0 34.1839 2.60775 34.1524 6.34516C34.1227 9.10798 36.8078 10.6494 38.8345 11.5691C40.9142 12.5113 41.6139 13.1124 41.6037 13.9541C41.5906 15.2428 39.9427 15.8318 38.4068 15.8318C36.2681 15.8318 35.1321 15.5404 33.3773 14.8226L32.6885 14.5169L31.9386 18.8211C33.1869 19.3578 35.4949 19.823 37.8908 19.8469C43.508 19.8469 47.1541 17.269 47.1958 13.2778C47.2161 11.0907 45.792 9.42585 42.7097 8.05383C40.8418 7.16432 39.6979 6.57058 39.7099 5.67002C39.7099 4.87075 40.678 4.01623 42.7701 4.01623C44.5175 3.98972 45.783 4.3632 46.7692 4.75289L47.248 4.97462L47.9724 0.807372Z" fill="#666666"/>
<path fill-rule="evenodd" clip-rule="evenodd" d="M61.6751 0.352492H57.5461C56.267 0.352492 55.3098 0.694668 54.748 1.94698L46.8122 19.5681H52.4234C52.4234 19.5681 53.3409 17.1987 53.5485 16.6786C54.1618 16.6786 59.6123 16.6867 60.3915 16.6867C60.5515 17.3596 61.0419 19.5681 61.0419 19.5681H66.0001L61.6751 0.352492ZM55.0863 12.7456C55.528 11.6377 57.2152 7.37059 57.2152 7.37059C57.1833 7.42179 57.6539 6.25751 57.9235 5.53559L58.2848 7.19343C58.2848 7.19343 59.3081 11.7831 59.5218 12.7456H55.0863Z" fill="#666666"/>
<path fill-rule="evenodd" clip-rule="evenodd" d="M18.7692 0.348088L13.5376 13.4602L12.9803 10.7953C12.0066 7.72346 8.97226 4.39563 5.57968 2.72969L10.3632 19.5453L16.0169 19.539L24.4293 0.348088H18.7692Z" fill="#666666"/>
<path fill-rule="evenodd" clip-rule="evenodd" d="M8.68461 0.336282H0.0683473L0 0.736285C6.70367 2.32782 11.1391 6.17389 12.9804 10.7953L11.1068 1.9595C10.7831 0.74181 9.84501 0.37864 8.68461 0.336282Z" fill="#ED9F2D"/>
</svg>
