<svg width="14" height="14" viewBox="0 0 14 14" fill="none" xmlns="http://www.w3.org/2000/svg">
<path fill-rule="evenodd" clip-rule="evenodd" d="M0 7C0 3.13425 3.13425 0 7 0C10.8658 0 14 3.13425 14 7C14 10.8658 10.8658 14 7 14C3.13425 14 0 10.8658 0 7ZM2.91375 7.58333H7.58333V1.74708C7.58333 1.42625 7.32375 1.16667 7.0035 1.16667H6.99708C6.67625 1.16667 6.41667 1.42625 6.41667 1.74708V6.41667H2.91375C2.59292 6.41667 2.33333 6.67625 2.33333 6.9965V7.00292C2.33333 7.32375 2.59292 7.58333 2.91375 7.58333Z" fill="#C8C7CC"/>
</svg>
